<?xml version="1.0" standalone="no"?>
<!DOCTYPE svg PUBLIC "-//W3C//DTD SVG 20010904//EN"
 "http://www.w3.org/TR/2001/REC-SVG-20010904/DTD/svg10.dtd">
<svg version="1.0" xmlns="http://www.w3.org/2000/svg"
 width="512.000000pt" height="512.000000pt" viewBox="0 0 512.000000 512.000000"
 preserveAspectRatio="xMidYMid meet">

<g transform="translate(0.000000,512.000000) scale(0.100000,-0.100000)"
fill="#000000" stroke="none">
<path d="M2325 4868 c-936 -94 -1736 -763 -1994 -1668 -159 -557 -106 -1139
149 -1665 109 -223 258 -430 441 -614 129 -128 220 -202 374 -303 912 -599
2136 -470 2907 305 352 354 576 801 655 1308 24 159 24 500 0 659 -81 513
-298 944 -661 1306 -194 193 -355 312 -579 427 -393 203 -852 290 -1292 245z
m480 -163 c153 -18 297 -51 450 -103 l110 -37 -170 -5 c-165 -5 -172 -6 -237
-37 -93 -44 -151 -100 -196 -191 -35 -72 -37 -81 -37 -172 0 -90 2 -101 36
-168 l35 -72 -54 0 c-85 0 -131 -18 -187 -75 -71 -70 -91 -145 -63 -239 16
-55 99 -138 154 -154 31 -9 215 -12 713 -12 l672 0 24 -25 c33 -32 33 -78 0
-110 l-24 -25 -352 0 c-247 0 -364 -4 -393 -12 -86 -26 -166 -136 -166 -228 0
-92 80 -202 166 -228 31 -9 219 -12 733 -12 l691 0 0 -34 c0 -18 3 -54 6 -80
l7 -46 -418 0 c-299 0 -429 -3 -459 -12 -86 -26 -166 -136 -166 -228 0 -124
116 -240 240 -240 124 0 240 -116 240 -240 0 -92 -80 -202 -166 -228 -31 -9
-206 -12 -674 -12 -468 0 -643 -3 -674 -12 -86 -26 -166 -136 -166 -228 0 -92
80 -202 166 -228 30 -9 181 -12 553 -12 l512 0 24 -25 c16 -15 25 -36 25 -55
0 -19 -9 -40 -25 -55 l-24 -25 -232 0 c-153 0 -246 -4 -273 -12 -55 -16 -138
-99 -154 -154 -25 -86 -9 -162 49 -228 51 -57 98 -79 189 -86 l75 -5 -110 -37
c-551 -187 -1129 -149 -1650 107 -142 70 -282 159 -403 257 -82 66 -285 267
-302 299 -10 19 -4 19 280 19 l291 0 24 25 c16 15 25 36 25 55 0 19 -9 40 -25
55 l-24 25 -354 0 -354 0 -61 104 c-170 284 -264 585 -297 944 l-6 72 216 0
216 0 24 25 c33 32 33 78 0 110 l-24 25 -216 0 -216 0 6 73 c33 358 129 665
297 945 l62 102 353 0 354 0 24 25 c33 32 33 78 0 110 l-24 25 -291 0 -291 0
11 21 c22 40 257 265 351 336 455 341 1003 492 1554 428z m959 -354 c442 -299
759 -750 891 -1270 14 -55 25 -104 25 -110 0 -8 -203 -11 -675 -11 l-676 0
-24 25 c-33 32 -33 78 0 110 l24 25 352 0 c247 0 364 4 393 12 86 26 166 136
166 228 0 92 -80 202 -166 228 -31 9 -215 12 -713 12 l-672 0 -24 25 c-33 32
-33 78 0 110 l24 25 231 0 231 0 24 25 c50 50 15 135 -56 135 -123 0 -239 117
-239 240 0 63 23 114 75 165 27 28 66 56 85 62 22 7 149 11 343 12 l308 1 73
-49z m951 -1943 c-59 -679 -401 -1268 -951 -1639 l-73 -49 -221 0 -221 0 -24
25 c-16 15 -25 36 -25 55 0 19 9 40 25 55 l24 25 232 0 c153 0 246 4 273 12
86 26 166 136 166 228 0 92 -80 202 -166 228 -30 9 -181 12 -553 12 l-512 0
-24 25 c-30 29 -32 74 -6 106 l19 24 669 5 668 5 67 32 c93 44 151 100 196
191 35 72 37 81 37 171 0 87 -3 102 -32 163 -64 135 -185 222 -328 235 -53 5
-74 12 -92 29 -31 31 -30 78 2 109 l24 25 416 0 416 0 -6 -72z"/>
<path d="M1065 2615 c-16 -15 -25 -36 -25 -55 0 -19 9 -40 25 -55 24 -25 26
-25 215 -25 189 0 191 0 215 25 16 15 25 36 25 55 0 19 -9 40 -25 55 -24 25
-26 25 -215 25 -189 0 -191 0 -215 -25z"/>
</g>
</svg>
