<?xml version="1.0" standalone="no"?>
<!DOCTYPE svg PUBLIC "-//W3C//DTD SVG 20010904//EN"
 "http://www.w3.org/TR/2001/REC-SVG-20010904/DTD/svg10.dtd">
<svg version="1.0" xmlns="http://www.w3.org/2000/svg"
 width="512.000000pt" height="512.000000pt" viewBox="0 0 512.000000 512.000000"
 preserveAspectRatio="xMidYMid meet">

<g transform="translate(0.000000,512.000000) scale(0.100000,-0.100000)"
fill="#000000" stroke="none">
<path d="M2395 4813 c-27 -8 -85 -19 -127 -23 -92 -9 -171 -43 -242 -103 -28
-24 -82 -58 -120 -77 -85 -43 -167 -109 -220 -176 -23 -28 -60 -76 -84 -105
-166 -210 -272 -636 -272 -1101 0 -229 -9 -298 -65 -509 -62 -233 -78 -333
-72 -454 9 -180 63 -297 211 -452 49 -51 130 -126 180 -165 125 -98 155 -127
178 -172 38 -74 4 -139 -134 -251 -101 -84 -144 -134 -159 -187 -13 -48 -7
-65 26 -80 21 -9 30 -7 62 15 30 20 204 87 227 87 3 0 6 -26 6 -57 0 -114 49
-231 132 -319 58 -61 135 -114 166 -114 30 0 60 46 44 69 -21 28 -64 122 -59
127 8 8 153 -162 172 -202 9 -20 19 -55 22 -78 7 -70 13 -85 34 -96 29 -16 62
8 109 81 72 111 101 260 76 379 l-8 35 42 -40 c22 -22 58 -74 78 -114 32 -65
37 -84 37 -145 0 -91 -21 -135 -92 -188 -54 -41 -61 -55 -43 -89 14 -25 42
-24 126 5 279 95 459 282 500 521 9 50 18 92 20 94 2 2 12 -3 21 -11 33 -29
141 -78 228 -103 94 -27 287 -52 328 -41 53 13 46 78 -11 97 -63 20 -145 65
-187 103 l-40 35 85 -26 c139 -41 189 -73 240 -153 40 -62 74 -75 103 -39 28
35 21 184 -12 249 -38 74 -95 143 -165 200 l-66 54 52 28 c58 31 128 98 128
123 0 23 -39 57 -57 50 -9 -3 -41 -8 -72 -11 -107 -12 -166 36 -165 131 1 70
29 123 110 215 178 201 238 355 214 554 -6 49 -22 137 -36 195 -78 325 -76
307 -84 691 -6 293 -11 376 -29 474 -40 227 -120 411 -241 557 -38 46 -87 109
-109 139 -56 80 -160 173 -228 205 -65 30 -61 28 -129 73 -50 34 -111 54 -269
91 -110 25 -283 27 -360 4z m323 -97 c9 -5 1 -16 -28 -37 -40 -29 -52 -62 -26
-72 8 -3 20 0 26 8 6 8 34 28 61 46 40 25 57 30 84 26 50 -8 150 -55 176 -83
12 -13 27 -24 33 -24 6 0 34 -11 61 -24 64 -29 154 -111 196 -179 18 -28 59
-81 91 -116 66 -72 73 -90 26 -61 -53 33 -155 60 -223 60 -170 0 -333 -108
-469 -310 -59 -88 -129 -228 -122 -246 13 -33 37 -11 77 68 96 192 220 336
342 397 90 46 200 54 292 22 63 -23 169 -87 202 -124 37 -40 87 -187 113 -334
10 -55 28 -263 24 -263 -1 0 -12 17 -25 38 -33 55 -98 121 -144 145 -57 30
-148 27 -245 -8 -41 -15 -108 -39 -149 -53 -72 -26 -96 -46 -71 -62 15 -9 55
2 195 55 160 60 237 53 316 -32 46 -49 73 -94 104 -177 23 -61 25 -79 25 -235
0 -187 9 -253 70 -516 53 -229 63 -300 50 -383 -19 -119 -79 -223 -213 -370
-141 -156 -157 -314 -42 -425 21 -20 46 -39 56 -42 11 -4 19 -11 19 -16 0 -15
-58 -1 -96 22 -40 24 -56 24 -78 0 -33 -37 -17 -60 94 -137 128 -89 237 -187
269 -243 l23 -42 -53 30 c-30 16 -94 42 -144 56 -132 40 -175 66 -246 145 -35
38 -70 70 -78 70 -22 0 -51 -30 -51 -53 0 -34 101 -214 154 -273 49 -56 50
-57 21 -50 -17 4 -64 23 -106 43 -85 39 -155 103 -186 167 -24 51 -44 63 -78
48 l-27 -13 8 -77 c25 -222 -9 -357 -123 -483 -64 -71 -76 -68 -40 8 28 60 32
78 32 154 0 87 -13 123 -39 113 -9 -3 -12 -32 -12 -97 1 -84 -2 -98 -31 -157
-18 -36 -43 -78 -55 -93 l-23 -28 -1 88 c0 98 -21 164 -76 249 -46 71 -137
156 -206 192 -72 39 -106 41 -127 8 -15 -22 -14 -27 14 -82 16 -33 35 -80 42
-107 15 -60 8 -203 -13 -241 l-15 -28 -30 53 c-17 30 -66 92 -109 139 -95 104
-129 156 -144 221 -13 52 -35 71 -72 61 -29 -7 -33 -21 -38 -142 l-6 -115 -28
59 c-38 79 -46 177 -21 278 l17 72 -22 18 c-28 22 -54 16 -95 -22 -31 -29 -55
-43 -101 -61 -21 -7 -10 7 42 58 97 93 129 150 129 228 -1 78 -20 113 -112
202 -101 99 -136 183 -149 365 -6 83 -8 89 -28 86 -20 -3 -21 -8 -19 -93 2
-50 11 -120 21 -157 22 -76 15 -79 -45 -16 -63 67 -128 336 -121 499 8 168 69
261 243 374 83 54 100 77 59 83 -27 4 -193 -108 -240 -161 -115 -131 -142
-323 -80 -572 13 -55 23 -101 21 -103 -7 -7 -82 119 -104 178 -23 59 -25 79
-25 205 1 137 2 144 52 327 65 237 82 339 82 509 0 128 2 140 30 209 16 40 40
89 51 109 30 49 97 119 134 138 49 26 129 20 225 -17 187 -72 191 -73 209 -56
20 21 10 29 -74 59 -38 14 -101 38 -140 52 -86 33 -182 37 -235 10 -63 -33
-91 -59 -141 -133 -46 -69 -49 -72 -49 -43 0 93 60 396 102 511 22 61 27 68
93 112 100 67 183 92 289 86 73 -4 96 -10 161 -42 46 -23 102 -62 141 -98 63
-59 153 -183 190 -260 20 -44 54 -53 54 -15 0 44 -101 198 -190 287 -69 71
-101 95 -173 130 -82 41 -96 44 -181 48 -107 5 -178 -11 -265 -60 l-54 -30 22
39 c13 21 55 80 94 132 78 103 147 161 262 218 39 20 92 55 118 79 54 48 122
74 197 74 43 0 52 -5 109 -56 57 -52 64 -56 78 -41 15 15 13 20 -34 67 l-50
50 31 10 c36 11 265 8 284 -4z"/>
<path d="M1972 4461 c-79 -20 -122 -42 -122 -63 0 -23 14 -22 110 6 81 25 228
23 310 -3 78 -24 148 -72 192 -129 34 -44 55 -52 64 -27 9 24 -44 92 -104 136
-91 65 -149 82 -292 85 -69 2 -140 -1 -158 -5z"/>
<path d="M2954 4426 c-108 -25 -225 -98 -278 -174 -49 -72 -12 -101 40 -32 68
88 166 143 287 162 60 9 84 8 147 -6 104 -24 124 -24 128 -4 2 12 -12 22 -54
38 -73 27 -190 34 -270 16z"/>
<path d="M1713 3980 c-28 -12 -71 -38 -95 -60 -39 -35 -42 -40 -28 -54 14 -14
20 -12 67 22 101 77 226 83 356 19 131 -65 300 -246 373 -400 11 -23 24 -37
34 -35 29 6 20 44 -30 128 -99 166 -218 283 -358 353 -77 38 -91 41 -175 44
-74 3 -102 -1 -144 -17z"/>
<path d="M3150 3968 c-169 -59 -385 -269 -489 -474 -36 -71 -39 -94 -12 -94
14 0 31 22 61 78 133 247 371 449 544 460 80 5 134 -10 192 -54 42 -33 48 -34
62 -20 14 14 14 18 -7 39 -76 81 -226 109 -351 65z"/>
<path d="M2133 3338 c-20 -23 -1 -35 65 -41 69 -7 139 -34 161 -60 15 -19 46
-23 56 -7 22 36 -101 107 -205 116 -50 5 -68 3 -77 -8z"/>
<path d="M2820 3334 c-92 -24 -171 -93 -127 -110 9 -3 33 6 55 21 50 33 122
55 179 55 40 0 44 2 41 23 -3 19 -10 22 -48 24 -25 1 -70 -5 -100 -13z"/>
<path d="M2023 3254 c-7 -3 -13 -14 -13 -25 0 -18 8 -19 108 -19 129 -1 188
-13 224 -47 27 -26 58 -26 58 0 0 19 -49 63 -85 78 -31 12 -271 23 -292 13z"/>
<path d="M2822 3249 c-49 -9 -107 -42 -116 -65 -18 -48 15 -60 53 -20 31 33
92 46 220 46 102 0 111 1 111 19 0 10 -7 22 -16 25 -22 9 -201 5 -252 -5z"/>
<path d="M2037 3140 c-43 -4 -98 -13 -122 -20 -47 -13 -88 -45 -82 -63 6 -18
37 -20 55 -4 22 19 86 37 135 37 34 0 36 -1 25 -20 -11 -17 -8 -23 16 -49 38
-39 100 -55 186 -47 39 3 70 2 70 -3 0 -4 -72 -84 -161 -177 -186 -195 -239
-262 -286 -359 -42 -90 -51 -178 -17 -183 18 -3 22 3 27 49 8 65 51 156 110
234 25 33 116 135 204 226 90 94 168 185 181 211 36 73 27 125 -26 152 -34 17
-212 27 -315 16z m233 -69 c0 -20 -32 -37 -50 -26 -5 3 -10 15 -10 26 0 14 7
19 30 19 23 0 30 -5 30 -19z m-107 -18 c3 -16 4 -29 3 -31 -2 -1 -18 3 -36 10
l-33 11 22 19 c31 24 38 23 44 -9z m182 7 c0 -7 -6 -15 -12 -17 -8 -3 -13 4
-13 17 0 13 5 20 13 18 6 -3 12 -11 12 -18z"/>
<path d="M2841 3140 c-86 -5 -95 -7 -117 -33 -30 -35 -31 -84 -4 -137 11 -22
85 -107 165 -190 246 -255 314 -354 329 -474 6 -45 11 -56 26 -56 25 0 31 22
20 83 -23 122 -98 229 -328 469 -77 81 -145 156 -151 167 -10 18 -9 19 21 10
80 -23 180 -5 231 41 29 26 31 31 19 51 -14 21 -13 21 45 15 32 -4 76 -16 99
-27 53 -25 66 -24 62 4 -8 59 -183 91 -417 77z m49 -69 c0 -20 -32 -37 -50
-26 -5 3 -10 15 -10 26 0 14 7 19 30 19 23 0 30 -5 30 -19z m-110 -11 c0 -11
-4 -20 -9 -20 -14 0 -23 18 -16 30 10 17 25 11 25 -10z m196 6 c21 -16 14 -29
-25 -41 -20 -6 -23 -4 -18 10 4 9 7 23 7 31 0 18 11 18 36 0z"/>
<path d="M2414 2931 c-90 -72 -151 -166 -138 -215 8 -33 50 -71 109 -98 43
-20 66 -23 170 -23 l120 0 -50 -25 c-34 -17 -50 -31 -50 -45 0 -17 8 -19 85
-20 97 -1 170 -28 247 -91 43 -35 73 -39 73 -10 0 31 -104 102 -195 133 l-40
13 43 -5 c158 -20 320 -208 367 -429 25 -115 17 -174 -50 -356 -74 -204 -95
-292 -95 -412 0 -109 4 -128 31 -128 17 0 18 9 18 113 -1 140 13 201 93 410
61 159 62 164 62 262 1 77 -5 117 -23 175 -75 243 -246 408 -434 418 l-69 4
39 18 c56 25 93 73 93 119 0 46 -31 91 -118 174 l-61 57 -89 0 c-89 0 -90 0
-138 -39z m285 -87 c62 -65 72 -80 69 -107 -6 -59 -90 -97 -219 -97 -98 0
-170 22 -203 60 -34 41 -23 71 62 154 l66 66 77 0 76 0 72 -76z"/>
<path d="M2373 2755 c-10 -26 26 -55 69 -55 31 0 38 4 38 19 0 41 -93 71 -107
36z"/>
<path d="M2630 2750 c-35 -35 1 -71 52 -51 32 12 52 37 44 56 -8 22 -72 19
-96 -5z"/>
<path d="M3520 2716 c0 -8 20 -56 45 -108 59 -123 89 -242 81 -322 -11 -108
-42 -155 -201 -312 -139 -136 -162 -168 -131 -180 20 -8 307 279 335 334 73
144 62 287 -39 500 -39 81 -53 102 -69 102 -12 0 -21 -6 -21 -14z"/>
<path d="M2255 2587 c-174 -58 -315 -228 -361 -433 -34 -154 -5 -370 76 -564
76 -184 276 -500 316 -500 30 0 25 30 -13 82 -144 196 -214 378 -215 558 -1
112 12 173 53 254 17 32 28 65 25 72 -10 27 -35 14 -62 -32 -43 -74 -64 -165
-64 -284 -1 -121 -7 -118 -45 21 -73 266 -25 511 129 665 65 65 148 112 212
120 l39 4 -36 -14 c-96 -38 -189 -103 -189 -132 0 -29 30 -26 67 6 20 18 67
47 103 64 56 26 77 31 150 31 77 1 85 3 85 20 0 13 -15 28 -44 44 -53 29 -164
38 -226 18z"/>
<path d="M2453 2479 c-34 -4 -82 -16 -106 -27 -58 -26 -200 -125 -231 -163
-28 -33 -45 -114 -28 -131 17 -17 42 -1 42 27 0 25 25 85 36 85 2 0 18 -10 34
-22 l30 -22 142 27 c175 33 189 33 340 2 147 -30 158 -31 192 -4 34 26 44 18
61 -48 9 -36 17 -48 31 -48 16 0 19 7 17 42 -3 64 -26 98 -116 164 -103 77
-170 107 -261 119 -81 11 -97 11 -183 -1z m177 -50 c85 -14 158 -45 142 -61
-9 -9 -17 -7 -32 10 -17 18 -25 20 -41 11 -16 -8 -25 -7 -40 7 -17 16 -20 16
-45 -1 -25 -16 -28 -16 -39 -1 -15 20 -39 21 -55 1 -11 -14 -15 -14 -37 1 -23
14 -26 14 -43 -1 -14 -13 -23 -14 -39 -6 -16 9 -24 7 -39 -9 -12 -13 -25 -18
-36 -14 -16 6 -15 7 1 19 21 15 111 42 158 48 56 7 80 7 145 -4z m-350 -104
c0 -18 -4 -23 -15 -19 -25 10 -19 33 13 43 1 1 2 -10 2 -24z m290 15 c11 -7 6
-10 -20 -10 -26 0 -31 3 -20 10 8 5 17 10 20 10 3 0 12 -5 20 -10z m280 -10
c0 -4 -7 -13 -15 -20 -13 -11 -15 -8 -15 13 0 19 4 25 15 21 8 -4 15 -10 15
-14z m-360 3 c8 -3 -16 -11 -55 -19 -100 -18 -117 -17 -75 4 36 18 104 26 130
15z m250 -18 l35 -16 -45 6 c-25 3 -64 9 -87 12 -24 3 -43 10 -43 14 0 14 102
2 140 -16z"/>
<path d="M2366 2108 c-14 -19 -38 -61 -53 -93 -25 -54 -28 -71 -28 -165 0
-100 2 -109 36 -180 55 -115 166 -254 194 -244 25 10 18 29 -33 91 -27 32 -63
80 -81 106 -94 138 -97 294 -10 432 30 47 34 75 12 82 -6 2 -23 -11 -37 -29z"/>
<path d="M2519 2053 c-6 -16 -9 -64 -7 -108 5 -106 39 -170 164 -306 52 -57
105 -125 117 -151 14 -31 28 -47 37 -46 47 9 6 95 -98 209 -149 162 -178 223
-169 350 5 73 4 79 -14 79 -12 0 -24 -11 -30 -27z"/>
<path d="M3226 1642 c-14 -24 -25 -182 -16 -232 12 -61 21 -75 45 -66 14 5 15
13 9 49 -11 53 -11 104 -1 190 8 63 7 67 -12 67 -11 0 -22 -4 -25 -8z"/>
</g>
</svg>
