<?xml version="1.0" encoding="UTF-8"?>
<svg version="1.1" xmlns="http://www.w3.org/2000/svg" width="1280" height="1280">
<path d="M0 0 C0.85 -0 1.69 -0 2.57 -0 C4.35 0 6.14 0.01 7.92 0.03 C10.65 0.05 13.37 0.05 16.1 0.04 C17.84 0.05 19.57 0.05 21.31 0.06 C22.12 0.06 22.94 0.06 23.77 0.06 C27.96 0.11 31.42 0.25 35.16 2.36 C37.16 5.36 37.16 5.36 38.16 23.36 C110.76 23.69 183.36 24.02 258.16 24.36 C258.16 19.41 258.16 14.46 258.16 9.36 C263.06 4.46 263.06 4.46 267.16 4.36 C269.77 5.35 269.77 5.35 272.16 7.36 C272.7 10.27 272.95 12.64 272.97 15.55 C273.01 16.68 273.01 16.68 273.04 17.82 C273.1 19.67 273.13 21.52 273.16 23.36 C274.55 23.38 274.55 23.38 275.98 23.39 C284.75 23.47 293.52 23.55 302.29 23.65 C306.79 23.7 311.3 23.75 315.81 23.79 C320.16 23.82 324.51 23.87 328.86 23.92 C330.52 23.94 332.18 23.95 333.84 23.97 C336.17 23.98 338.49 24.01 340.82 24.04 C341.85 24.05 341.85 24.05 342.9 24.05 C346.46 24.11 349.2 24.29 352.16 26.36 C354.34 29.64 354.7 30.56 354.16 34.36 C351.23 38.96 351.23 38.96 348.47 40 C345.26 40.5 342.15 40.48 338.91 40.48 C337.83 40.48 337.83 40.48 336.72 40.48 C334.34 40.48 331.96 40.47 329.58 40.46 C327.92 40.46 326.27 40.46 324.62 40.46 C320.27 40.45 315.92 40.44 311.58 40.43 C307.14 40.42 302.7 40.42 298.27 40.41 C289.56 40.4 280.86 40.38 272.16 40.36 C272.19 41.48 272.23 42.6 272.26 43.76 C272.29 45.23 272.32 46.7 272.34 48.18 C272.38 49.28 272.38 49.28 272.42 50.41 C272.49 55.85 272.49 55.85 270.86 58.35 C267.91 60.1 265.48 59.77 262.16 59.36 C260.84 58.04 259.52 56.72 258.16 55.36 C258.16 50.41 258.16 45.46 258.16 40.36 C185.23 40.36 112.3 40.36 37.16 40.36 C37.16 46.63 37.16 52.9 37.16 59.36 C30.41 64.99 30.41 64.99 26.88 64.98 C25.71 64.99 25.71 64.99 24.51 65.01 C23.68 64.99 22.85 64.97 22 64.96 C21.13 64.96 20.26 64.96 19.37 64.96 C17.54 64.95 15.71 64.93 13.89 64.91 C11.1 64.86 8.31 64.86 5.52 64.87 C3.74 64.86 1.96 64.85 0.18 64.83 C-0.65 64.83 -1.48 64.83 -2.33 64.83 C-6.94 64.74 -10.16 64.44 -13.84 61.36 C-14.88 59.05 -15.89 56.71 -16.84 54.36 C-17.83 54.03 -18.82 53.7 -19.84 53.36 C-19.84 126.95 -19.84 200.54 -19.84 276.36 C-13.9 276.36 -7.96 276.36 -1.84 276.36 C2.43 278.5 3.29 279.15 5.16 283.36 C5.44 286.11 5.57 288.63 5.54 291.38 C5.55 292.57 5.55 292.57 5.56 293.78 C5.57 296.39 5.56 299 5.55 301.61 C5.56 303.43 5.56 305.25 5.56 307.07 C5.57 310.88 5.56 314.69 5.55 318.5 C5.53 323.38 5.54 328.26 5.56 333.14 C5.57 336.89 5.57 340.65 5.56 344.4 C5.56 346.2 5.56 348 5.57 349.8 C5.57 352.32 5.56 354.83 5.54 357.35 C5.55 358.09 5.56 358.83 5.56 359.59 C5.51 364.02 4.9 366.85 2.16 370.36 C1.17 371.02 0.18 371.68 -0.84 372.36 C18.83 374 38.46 375.61 58.21 376.07 C59.29 376.1 60.38 376.13 61.5 376.15 C62.43 376.17 63.36 376.19 64.32 376.21 C67.16 376.36 67.16 376.36 70.42 376.85 C74.8 377.45 79.12 377.68 83.53 377.86 C84.41 377.9 85.29 377.94 86.2 377.99 C89 378.12 91.79 378.24 94.59 378.36 C98.28 378.53 101.97 378.69 105.65 378.86 C106.49 378.9 107.32 378.93 108.18 378.97 C111.92 379.14 115.61 379.39 119.32 379.88 C122.9 380.33 126.37 380.55 129.96 380.64 C131.21 380.68 132.45 380.72 133.73 380.76 C135.64 380.81 135.64 380.81 137.59 380.86 C140.13 380.93 142.67 381.01 145.21 381.08 C146.33 381.11 147.45 381.14 148.6 381.17 C151.28 381.32 153.87 381.54 156.53 381.85 C161.05 382.38 165.56 382.65 170.1 382.86 C171.77 382.95 173.44 383.03 175.11 383.11 C177.7 383.24 180.3 383.36 182.89 383.49 C185.42 383.61 187.95 383.74 190.48 383.86 C191.24 383.9 192.01 383.93 192.8 383.97 C196.16 384.14 199.41 384.4 202.75 384.88 C206.3 385.38 209.75 385.55 213.34 385.64 C214.33 385.67 214.33 385.67 215.34 385.7 C217.42 385.76 219.51 385.81 221.59 385.86 C224.34 385.93 227.09 386.01 229.84 386.08 C231.05 386.11 232.26 386.14 233.51 386.17 C236.73 386.34 239.87 386.69 243.06 387.12 C246.84 387.56 250.64 387.7 254.44 387.86 C255.3 387.9 256.16 387.94 257.05 387.99 C260.69 388.16 264.33 388.32 267.98 388.49 C270.65 388.61 273.33 388.74 276 388.86 C276.82 388.9 277.63 388.93 278.47 388.97 C283.09 389.19 287.57 389.7 292.16 390.36 C294.55 390.49 296.94 390.58 299.34 390.64 C300.33 390.67 300.33 390.67 301.34 390.7 C303.42 390.76 305.51 390.81 307.59 390.86 C310.34 390.93 313.09 391.01 315.84 391.08 C317.05 391.11 318.26 391.14 319.51 391.17 C322.73 391.34 325.87 391.69 329.06 392.12 C332.84 392.56 336.64 392.7 340.44 392.86 C341.3 392.9 342.16 392.94 343.05 392.99 C346.69 393.16 350.33 393.32 353.98 393.49 C356.65 393.61 359.33 393.74 362 393.86 C362.82 393.9 363.63 393.93 364.47 393.97 C369.09 394.19 373.57 394.7 378.16 395.36 C380.56 395.49 382.97 395.58 385.38 395.64 C386.37 395.67 386.37 395.67 387.38 395.7 C389.47 395.76 391.56 395.81 393.66 395.86 C396.42 395.93 399.18 396.01 401.94 396.08 C403.16 396.11 404.37 396.14 405.63 396.17 C409.16 396.36 409.16 396.36 412.52 396.85 C416.87 397.46 421.18 397.68 425.56 397.86 C426.45 397.9 427.33 397.94 428.24 397.99 C431.05 398.12 433.85 398.24 436.66 398.36 C440.35 398.53 444.05 398.69 447.75 398.86 C449.01 398.92 449.01 398.92 450.29 398.97 C454.97 399.19 459.51 399.69 464.16 400.36 C466.56 400.49 468.97 400.58 471.38 400.64 C472.37 400.67 472.37 400.67 473.38 400.7 C475.47 400.76 477.56 400.81 479.66 400.86 C482.42 400.93 485.18 401.01 487.94 401.08 C489.16 401.11 490.37 401.14 491.63 401.17 C495.19 401.37 498.63 401.86 502.16 402.36 C504.5 402.5 506.84 402.61 509.18 402.68 C510.47 402.72 511.76 402.76 513.08 402.81 C514.42 402.85 515.76 402.89 517.09 402.93 C518.46 402.97 519.82 403.01 521.19 403.06 C524.51 403.16 527.83 403.26 531.16 403.36 C531.16 402.7 531.16 402.04 531.16 401.36 C536.79 396.73 542.08 396.08 549.12 396.63 C556.85 397.42 564.51 398.5 572.14 399.93 C576.87 400.61 581.61 400.82 586.37 401.02 C591.78 401.27 591.78 401.27 594.07 401.85 C596.46 402.44 598.76 402.66 601.22 402.86 C602.18 402.95 603.14 403.03 604.13 403.11 C605.13 403.2 606.13 403.28 607.16 403.36 C609.14 403.53 611.11 403.69 613.09 403.86 C613.97 403.94 614.84 404.01 615.75 404.08 C617.97 404.34 619.99 404.82 622.16 405.36 C624.99 405.56 627.82 405.73 630.66 405.86 C634.94 406.06 638.99 406.32 643.16 407.36 C644.67 407.55 646.2 407.7 647.72 407.83 C648.59 407.9 649.47 407.98 650.37 408.06 C651.29 408.14 652.21 408.22 653.16 408.3 C674.68 410.31 674.68 410.31 679.22 413.55 C684.19 420.77 684.6 426.58 684.55 435.18 C684.56 436.3 684.56 437.43 684.56 438.59 C684.57 440.97 684.56 443.35 684.55 445.72 C684.53 449.35 684.55 452.98 684.57 456.61 C684.56 458.92 684.56 461.24 684.55 463.55 C684.56 464.63 684.57 465.71 684.57 466.82 C684.5 474.27 683.57 479.11 679.06 485.19 C675.08 488.17 671.58 488.56 666.72 489.11 C665.84 489.23 664.95 489.35 664.04 489.47 C657.65 490.28 651.25 490.83 644.81 491.15 C642.05 491.26 642.05 491.26 639.16 492.36 C636.53 492.55 633.91 492.69 631.28 492.8 C624.86 493.12 618.64 493.81 612.3 494.89 C607.86 495.56 603.41 495.85 598.93 496.12 C596.28 496.27 596.28 496.27 594.29 496.86 C590.95 497.65 587.56 497.65 584.16 497.8 C578.04 498.11 572.16 498.77 566.13 499.89 C561.55 500.62 556.97 500.87 552.34 501.12 C549.76 501.32 547.43 501.69 544.91 502.24 C539.48 502.42 535.74 500.08 531.16 497.36 C531.16 496.7 531.16 496.04 531.16 495.36 C527.15 495.48 523.15 495.61 519.15 495.74 C517.79 495.78 516.43 495.82 515.07 495.86 C513.11 495.92 511.15 495.98 509.18 496.05 C508.01 496.08 506.83 496.12 505.61 496.16 C502.14 496.32 502.14 496.32 498.63 496.87 C495.22 497.35 491.94 497.54 488.5 497.61 C487.24 497.64 485.98 497.67 484.69 497.71 C484.03 497.72 483.37 497.74 482.7 497.75 C471.61 498.02 460.6 498.55 449.55 499.63 C441.21 500.42 432.87 500.77 424.49 501.02 C423.5 501.05 422.52 501.08 421.5 501.12 C420.64 501.14 419.77 501.17 418.88 501.19 C416.03 501.33 416.03 501.33 412.74 501.86 C409.29 502.34 405.98 502.53 402.5 502.61 C401.24 502.64 399.98 502.67 398.69 502.71 C398.03 502.72 397.37 502.74 396.7 502.75 C385.58 503.02 374.55 503.55 363.48 504.63 C355.4 505.4 347.33 505.76 339.22 506.02 C334.57 506.18 330.06 506.49 325.45 507.13 C320.53 507.63 315.57 507.64 310.62 507.75 C299.53 508.02 288.52 508.55 277.48 509.63 C269.4 510.4 261.33 510.76 253.22 511.02 C248.57 511.18 244.06 511.49 239.45 512.13 C234.53 512.63 229.57 512.64 224.62 512.75 C213.49 513.02 202.43 513.56 191.34 514.63 C183.77 515.35 176.2 515.75 168.6 516.02 C164.66 516.17 160.78 516.38 156.88 516.86 C150.78 517.59 144.66 517.64 138.53 517.8 C128.55 518.1 118.66 518.66 108.73 519.63 C100.11 520.44 91.49 520.77 82.84 521.02 C78.74 521.15 74.75 521.28 70.69 521.87 C65.36 522.62 60.03 522.61 54.66 522.74 C36.11 523.26 17.64 524.83 -0.84 526.36 C-0.04 526.96 0.76 527.56 1.59 528.18 C4.16 530.36 4.16 530.36 5.16 533.36 C5.26 535.97 5.31 538.55 5.32 541.15 C5.32 541.94 5.33 542.74 5.33 543.55 C5.35 546.17 5.35 548.8 5.36 551.42 C5.37 553.24 5.37 555.06 5.38 556.88 C5.39 560.71 5.39 564.53 5.4 568.35 C5.4 573.24 5.43 578.14 5.45 583.03 C5.47 586.8 5.48 590.56 5.48 594.33 C5.48 596.13 5.49 597.94 5.5 599.74 C5.52 602.27 5.52 604.79 5.51 607.32 C5.52 608.06 5.53 608.8 5.54 609.57 C5.5 614 4.98 616.89 2.16 620.36 C-1.84 622.36 -1.84 622.36 -19.84 622.36 C-19.84 695.95 -19.84 769.54 -19.84 845.36 C-15.57 843.76 -15.57 843.76 -14.34 839.86 C-12.84 836.36 -12.84 836.36 -11.31 835.17 C-7.54 833.94 -3.86 834.02 0.09 833.99 C0.95 833.98 1.82 833.97 2.72 833.96 C4.55 833.95 6.38 833.94 8.22 833.94 C11.01 833.93 13.81 833.88 16.61 833.83 C18.39 833.82 20.18 833.81 21.96 833.8 C22.79 833.79 23.62 833.77 24.48 833.75 C25.27 833.75 26.06 833.76 26.87 833.76 C27.55 833.76 28.24 833.75 28.94 833.75 C31.16 834.36 31.16 834.36 37.16 839.36 C37.16 845.63 37.16 851.9 37.16 858.36 C110.09 858.36 183.02 858.36 258.16 858.36 C258.16 853.41 258.16 848.46 258.16 843.36 C263.06 838.46 263.06 838.46 266.16 838.36 C268.4 839.51 270.37 840.57 272.16 842.36 C272.23 845.06 272.25 847.73 272.22 850.43 C272.21 851.56 272.21 851.56 272.21 852.72 C272.19 854.6 272.18 856.48 272.16 858.36 C273.07 858.36 273.99 858.35 274.93 858.35 C283.57 858.31 292.21 858.28 300.84 858.26 C305.28 858.25 309.72 858.24 314.16 858.21 C318.45 858.19 322.73 858.18 327.02 858.17 C328.65 858.17 330.29 858.16 331.92 858.15 C334.21 858.14 336.5 858.14 338.8 858.14 C340.1 858.13 341.4 858.13 342.75 858.12 C347.01 858.42 349.92 859.13 352.97 862.18 C354.44 864.89 354.69 866.32 354.16 869.36 C352.29 871.61 350.77 873.06 348.16 874.36 C345.78 874.49 343.43 874.55 341.04 874.57 C340.31 874.58 339.58 874.59 338.83 874.6 C336.4 874.63 333.98 874.65 331.55 874.68 C329.88 874.7 328.2 874.72 326.52 874.74 C322.1 874.8 317.67 874.85 313.25 874.9 C308.74 874.95 304.23 875 299.72 875.06 C290.86 875.16 282.01 875.27 273.16 875.36 C273.15 877.04 273.15 877.04 273.15 878.76 C273.11 880.23 273.07 881.7 273.03 883.18 C273.03 883.91 273.04 884.65 273.04 885.41 C272.96 887.57 272.96 887.57 272.16 891.36 C269.3 893.41 269.3 893.41 266.16 894.36 C262.91 893.74 262.91 893.74 260.16 892.36 C258.16 889.36 258.16 889.36 258.16 874.36 C185.56 874.69 112.96 875.02 38.16 875.36 C37.83 881.3 37.5 887.24 37.16 893.36 C34.16 897.36 34.16 897.36 32.22 898.1 C28.62 898.56 25.02 898.55 21.41 898.57 C20.56 898.57 19.71 898.58 18.84 898.58 C17.05 898.59 15.26 898.6 13.47 898.6 C10.73 898.61 8 898.64 5.26 898.68 C3.52 898.68 1.78 898.69 0.04 898.69 C-0.78 898.7 -1.59 898.72 -2.43 898.73 C-6.95 898.71 -10.41 898.64 -13.84 895.36 C-14.25 893.04 -14.58 890.71 -14.84 888.36 C-15.62 888.36 -16.39 888.36 -17.19 888.36 C-36.05 888.32 -54.9 888.26 -73.75 888.18 C-82.87 888.14 -91.99 888.11 -101.1 888.09 C-109.05 888.08 -116.99 888.05 -124.94 888.01 C-129.15 887.99 -133.35 887.97 -137.56 887.97 C-141.52 887.97 -145.48 887.95 -149.44 887.92 C-150.89 887.91 -152.35 887.91 -153.8 887.92 C-155.79 887.92 -157.77 887.9 -159.75 887.88 C-160.86 887.88 -161.97 887.87 -163.12 887.87 C-165.84 887.36 -165.84 887.36 -167.69 885.46 C-169.52 882.13 -169.53 879.13 -169.84 875.36 C-173.8 875.36 -177.76 875.36 -181.84 875.36 C-182.17 878.66 -182.5 881.96 -182.84 885.36 C-183.5 885.36 -184.16 885.36 -184.84 885.36 C-184.84 886.02 -184.84 886.68 -184.84 887.36 C-192.18 887.85 -192.18 887.85 -194.95 885.81 C-197.46 882.56 -197.4 879.83 -197.34 875.89 C-197.34 875.18 -197.34 874.46 -197.34 873.72 C-197.34 872.21 -197.33 870.69 -197.31 869.18 C-197.28 866.87 -197.29 864.56 -197.3 862.25 C-197.3 860.78 -197.29 859.3 -197.28 857.83 C-197.28 857.14 -197.28 856.45 -197.29 855.75 C-197.21 851.7 -196.81 849.22 -193.84 846.36 C-190.22 845.18 -188.54 845.05 -185.03 846.61 C-182.84 848.36 -182.84 848.36 -181.84 851.36 C-181.8 853.7 -181.8 856.03 -181.84 858.36 C-177.55 858.36 -173.26 858.36 -168.84 858.36 C-168.87 856.2 -168.87 856.2 -168.91 853.99 C-168.97 849.61 -168.97 849.61 -167.84 847.36 C-168.23 845.32 -168.23 845.32 -168.99 843.04 C-169.25 842.17 -169.52 841.31 -169.79 840.42 C-170.08 839.51 -170.36 838.61 -170.66 837.68 C-171.2 835.9 -171.75 834.13 -172.3 832.35 C-172.57 831.5 -172.83 830.64 -173.1 829.76 C-174.79 824.28 -176.23 818.8 -177.38 813.18 C-177.68 811.36 -177.68 811.36 -178.84 810.36 C-179.06 808.75 -179.06 808.75 -179.28 807.11 C-179.78 803.78 -180.51 801.41 -181.84 798.36 C-183.04 795.12 -183.86 792.23 -184.34 788.8 C-184.81 785.61 -185.57 783.29 -186.84 780.36 C-188.05 777.09 -188.87 774.2 -189.34 770.74 C-189.63 767.53 -189.63 767.53 -190.79 765.53 C-192.09 762.85 -192.61 760.28 -193.22 757.36 C-194.43 751.86 -195.99 746.62 -197.88 741.31 C-198.83 738.39 -199.6 735.45 -200.32 732.46 C-201.19 728.95 -202.18 725.47 -203.16 721.99 C-203.6 720.4 -204.04 718.81 -204.49 717.21 C-204.71 716.41 -204.94 715.6 -205.17 714.77 C-206.03 711.71 -206.88 708.65 -207.73 705.59 C-208.14 704.1 -208.55 702.62 -208.96 701.14 C-210.04 697.27 -211.11 693.41 -212.16 689.55 C-212.6 687.96 -213.03 686.38 -213.47 684.8 C-213.78 683.66 -213.78 683.66 -214.1 682.5 C-215.35 678 -216.75 673.59 -218.29 669.18 C-219.17 666.3 -219.44 663.34 -219.84 660.36 C-220.46 658.68 -221.13 657.01 -221.84 655.36 C-223.04 652.12 -223.86 649.23 -224.34 645.8 C-224.81 642.58 -225.63 640.36 -226.84 637.36 C-231.98 621.67 -231.98 621.67 -230.84 615.36 C-229.72 613.41 -228.54 611.5 -227.3 609.62 C-226.34 608.15 -226.34 608.15 -225.35 606.64 C-224.6 605.51 -224.6 605.51 -223.84 604.36 C-225.69 604.37 -225.69 604.37 -227.58 604.38 C-239.17 604.42 -250.77 604.45 -262.36 604.47 C-268.32 604.48 -274.28 604.49 -280.24 604.51 C-286 604.54 -291.75 604.55 -297.5 604.55 C-299.69 604.56 -301.89 604.56 -304.09 604.57 C-307.16 604.59 -310.23 604.59 -313.3 604.59 C-314.21 604.6 -315.12 604.6 -316.06 604.61 C-316.9 604.61 -317.74 604.61 -318.6 604.6 C-319.69 604.61 -319.69 604.61 -320.81 604.61 C-323.23 604.32 -324.78 603.66 -326.84 602.36 C-329.01 599.12 -329.11 598.16 -329.15 594.4 C-329.17 593.4 -329.18 592.39 -329.2 591.35 C-329.2 590.26 -329.21 589.18 -329.21 588.05 C-329.22 586.94 -329.23 585.82 -329.24 584.67 C-329.26 582.3 -329.27 579.93 -329.27 577.57 C-329.28 573.94 -329.33 570.32 -329.38 566.7 C-329.39 564.4 -329.4 562.1 -329.4 559.8 C-329.42 558.72 -329.44 557.63 -329.46 556.52 C-329.45 555 -329.45 555 -329.44 553.45 C-329.45 552.12 -329.45 552.12 -329.46 550.76 C-328.84 548.36 -328.84 548.36 -326.81 546.08 C-323.08 543.92 -319.95 543.79 -315.75 543.82 C-314.95 543.81 -314.15 543.8 -313.32 543.79 C-310.69 543.76 -308.05 543.76 -305.42 543.75 C-303.59 543.74 -301.76 543.72 -299.92 543.7 C-295.11 543.66 -290.3 543.64 -285.49 543.63 C-280.57 543.61 -275.66 543.56 -270.75 543.52 C-261.11 543.45 -251.48 543.4 -241.84 543.36 C-242.83 540.39 -242.83 540.39 -243.84 537.36 C-244.5 537.36 -245.16 537.36 -245.84 537.36 C-247.26 535.74 -247.26 535.74 -248.88 533.5 C-249.46 532.69 -250.04 531.89 -250.64 531.06 C-251.24 530.21 -251.85 529.36 -252.47 528.49 C-253.08 527.65 -253.69 526.8 -254.32 525.94 C-258.84 519.63 -258.84 519.63 -258.84 517.36 C-259.5 517.36 -260.16 517.36 -260.84 517.36 C-263.14 514.8 -263.84 513.88 -263.84 510.36 C-264.5 510.36 -265.16 510.36 -265.84 510.36 C-269.86 505.75 -269.3 500.48 -269.31 494.7 C-269.32 493.63 -269.34 492.56 -269.35 491.45 C-269.39 487.9 -269.41 484.35 -269.42 480.8 C-269.43 478.32 -269.45 475.85 -269.46 473.37 C-269.49 468.18 -269.5 462.99 -269.51 457.79 C-269.52 451.16 -269.58 444.53 -269.66 437.9 C-269.7 432.78 -269.72 427.67 -269.72 422.55 C-269.73 420.11 -269.75 417.66 -269.78 415.22 C-270.08 392.19 -270.08 392.19 -262.76 383.09 C-260.84 381.36 -260.84 381.36 -258.84 381.36 C-258.63 380.7 -258.41 380.04 -258.19 379.35 C-256.39 375.36 -253.94 372.06 -251.34 368.55 C-250.84 367.86 -250.35 367.17 -249.83 366.45 C-249.35 365.8 -248.87 365.14 -248.38 364.47 C-247.94 363.87 -247.5 363.28 -247.05 362.66 C-246.45 362.02 -246.45 362.02 -245.84 361.36 C-245.18 361.36 -244.52 361.36 -243.84 361.36 C-243.18 359.38 -242.52 357.4 -241.84 355.36 C-242.86 355.36 -243.88 355.36 -244.92 355.35 C-254.5 355.32 -264.08 355.26 -273.66 355.18 C-278.58 355.14 -283.51 355.11 -288.43 355.09 C-293.19 355.08 -297.94 355.04 -302.69 354.99 C-304.5 354.98 -306.32 354.97 -308.13 354.97 C-310.67 354.97 -313.21 354.94 -315.75 354.91 C-316.5 354.91 -317.25 354.92 -318.02 354.92 C-321.55 354.85 -323.74 354.43 -326.81 352.65 C-329.21 349.95 -329.47 348.85 -329.47 345.29 C-329.49 344.28 -329.5 343.28 -329.51 342.24 C-329.5 341.15 -329.49 340.07 -329.47 338.96 C-329.48 337.84 -329.48 336.72 -329.48 335.57 C-329.48 333.21 -329.47 330.85 -329.44 328.49 C-329.41 324.88 -329.42 321.26 -329.44 317.65 C-329.43 315.36 -329.42 313.06 -329.41 310.77 C-329.42 309.69 -329.42 308.6 -329.43 307.49 C-329.41 306.48 -329.39 305.47 -329.38 304.44 C-329.37 303.55 -329.36 302.67 -329.36 301.75 C-328.68 298.6 -327.29 297.4 -324.84 295.36 C-322.58 294.23 -321.36 294.24 -318.84 294.24 C-318.01 294.24 -317.17 294.24 -316.31 294.24 C-315.39 294.24 -314.48 294.25 -313.53 294.25 C-312.56 294.25 -311.6 294.25 -310.6 294.25 C-307.4 294.25 -304.2 294.26 -300.99 294.27 C-298.78 294.27 -296.56 294.27 -294.34 294.27 C-288.5 294.27 -282.66 294.28 -276.81 294.29 C-270.86 294.3 -264.9 294.31 -258.94 294.31 C-247.24 294.33 -235.54 294.34 -223.84 294.36 C-224.59 293.24 -224.59 293.24 -225.35 292.09 C-225.99 291.1 -226.64 290.12 -227.3 289.1 C-227.94 288.12 -228.58 287.15 -229.25 286.14 C-232.23 280.96 -231.35 277.41 -230 271.93 C-228.76 267.43 -227.5 262.98 -225.74 258.65 C-224.55 255.61 -224.3 252.59 -223.84 249.36 C-222.97 246.46 -221.99 243.71 -220.78 240.93 C-219.72 238.3 -219.72 238.3 -219.41 235.11 C-218.98 232.29 -218.52 230.19 -217.59 227.55 C-216.02 223.06 -214.73 218.51 -213.47 213.93 C-213.26 213.15 -213.04 212.37 -212.82 211.57 C-212.38 209.97 -211.94 208.36 -211.5 206.76 C-210.46 202.96 -209.4 199.16 -208.34 195.36 C-207.93 193.86 -207.51 192.36 -207.09 190.86 C-206.26 187.86 -205.43 184.86 -204.59 181.86 C-204.39 181.12 -204.18 180.38 -203.97 179.61 C-203.55 178.12 -203.14 176.63 -202.72 175.13 C-201.65 171.27 -200.58 167.41 -199.52 163.55 C-197.66 156.75 -195.8 149.99 -193.46 143.33 C-192.51 140.3 -191.89 137.22 -191.27 134.11 C-190.84 132.36 -190.84 132.36 -189.84 131.36 C-189.7 130.31 -189.56 129.26 -189.41 128.18 C-188.76 123.79 -187.55 119.98 -185.78 115.93 C-184.63 112.77 -184.31 109.69 -183.84 106.36 C-182.97 103.46 -181.99 100.71 -180.78 97.93 C-179.72 95.3 -179.72 95.3 -179.41 92.11 C-178.98 89.29 -178.52 87.19 -177.59 84.55 C-174.93 76.95 -172.96 69.13 -170.84 61.36 C-170.52 60.17 -170.19 58.98 -169.86 57.75 C-169.18 55.29 -168.51 52.83 -167.84 50.36 C-168.17 50.03 -168.5 49.7 -168.84 49.36 C-168.99 46.36 -168.89 43.37 -168.84 40.36 C-173.13 40.36 -177.42 40.36 -181.84 40.36 C-181.8 41.42 -181.76 42.47 -181.72 43.55 C-181.84 47.1 -182.32 49.21 -183.84 52.36 C-190.09 53.71 -190.09 53.71 -193.72 52.05 C-195.84 50.36 -195.84 50.36 -196.84 48.36 C-196.98 45.93 -197.06 43.53 -197.08 41.09 C-197.09 40.37 -197.1 39.65 -197.11 38.91 C-197.12 37.38 -197.13 35.86 -197.14 34.33 C-197.16 32 -197.2 29.68 -197.24 27.35 C-197.25 25.87 -197.26 24.38 -197.27 22.9 C-197.29 22.21 -197.3 21.51 -197.32 20.8 C-197.31 17.38 -197.07 15.65 -194.95 12.92 C-191.53 10.39 -188.99 11.09 -184.84 11.36 C-184.84 12.02 -184.84 12.68 -184.84 13.36 C-184.18 13.36 -183.52 13.36 -182.84 13.36 C-181.69 16.84 -181.78 19.72 -181.84 23.36 C-177.88 23.36 -173.92 23.36 -169.84 23.36 C-169.69 21.51 -169.69 21.51 -169.53 19.61 C-169.23 16 -168.4 13.99 -165.84 11.36 C-163.12 10.86 -163.12 10.86 -159.75 10.84 C-157.84 10.82 -157.84 10.82 -155.89 10.8 C-154.47 10.81 -153.06 10.81 -151.64 10.82 C-150.15 10.81 -148.67 10.8 -147.18 10.79 C-143.13 10.76 -139.09 10.75 -135.05 10.76 C-130.82 10.75 -126.6 10.73 -122.38 10.7 C-114.38 10.66 -106.38 10.64 -98.37 10.63 C-89.27 10.61 -80.16 10.58 -71.05 10.54 C-52.32 10.45 -33.58 10.4 -14.84 10.36 C-14.72 9.25 -14.6 8.13 -14.47 6.98 C-13.84 3.36 -13.84 3.36 -11.83 1.45 C-7.81 -0.01 -4.25 -0.05 0 0 Z M0.16 15.36 C0.16 26.25 0.16 37.14 0.16 48.36 C7.09 48.36 14.02 48.36 21.16 48.36 C21.16 37.47 21.16 26.58 21.16 15.36 C14.23 15.36 7.3 15.36 0.16 15.36 Z M-152.84 25.36 C-152.84 29.65 -152.84 33.94 -152.84 38.36 C-107.3 38.36 -61.76 38.36 -14.84 38.36 C-14.84 34.07 -14.84 29.78 -14.84 25.36 C-60.38 25.36 -105.92 25.36 -152.84 25.36 Z M-139.84 54.36 C-142.26 60.35 -143.69 66.6 -145.22 72.87 C-147.05 80.31 -149.12 87.67 -151.19 95.04 C-151.86 97.42 -152.52 99.8 -153.17 102.19 C-155.04 109 -156.91 115.77 -159.23 122.45 C-160.1 125.18 -160.66 127.96 -161.25 130.77 C-162.74 137.27 -164.44 143.88 -166.94 150.07 C-168.14 153.11 -168.39 156.13 -168.84 159.36 C-169.72 162.27 -170.69 165.02 -171.91 167.8 C-172.97 170.43 -172.97 170.43 -173.28 173.61 C-173.7 176.44 -174.17 178.54 -175.09 181.18 C-176.66 185.67 -177.96 190.21 -179.22 194.8 C-179.43 195.58 -179.65 196.35 -179.87 197.15 C-180.31 198.76 -180.75 200.36 -181.19 201.97 C-182.23 205.77 -183.29 209.57 -184.34 213.36 C-184.76 214.86 -185.18 216.36 -185.59 217.86 C-186.84 222.36 -186.84 222.36 -188.09 226.86 C-188.3 227.61 -188.51 228.35 -188.72 229.12 C-189.13 230.61 -189.55 232.1 -189.96 233.59 C-191.04 237.45 -192.11 241.32 -193.16 245.18 C-193.6 246.76 -194.03 248.34 -194.47 249.93 C-194.68 250.69 -194.89 251.45 -195.1 252.23 C-196.14 255.99 -197.26 259.69 -198.59 263.36 C-200.13 267.84 -201.22 272.62 -200.84 277.36 C-199.58 279.67 -199.58 279.67 -197.84 281.36 C-197.18 281.36 -196.52 281.36 -195.84 281.36 C-195.59 281.94 -195.33 282.51 -195.06 283.1 C-193.73 285.57 -192.2 287.45 -190.34 289.55 C-189.74 290.25 -189.13 290.94 -188.5 291.66 C-186.38 293.84 -185.39 294.33 -182.34 294.49 C-181.31 294.49 -180.28 294.49 -179.21 294.5 C-177.54 294.5 -177.54 294.5 -175.83 294.5 C-174.66 294.5 -173.49 294.49 -172.28 294.49 C-170.52 294.49 -170.52 294.49 -168.72 294.5 C-167.61 294.5 -166.49 294.5 -165.34 294.5 C-163.8 294.49 -163.8 294.49 -162.22 294.49 C-159.89 294.63 -159.89 294.63 -158.84 293.36 C-158.68 290.36 -158.59 287.35 -158.52 284.34 C-157.84 281.36 -157.84 281.36 -155.93 279.21 C-151.53 276.58 -147.78 276.79 -142.73 276.82 C-141.21 276.8 -141.21 276.8 -139.65 276.79 C-136.3 276.76 -132.95 276.76 -129.61 276.75 C-127.28 276.74 -124.96 276.72 -122.63 276.7 C-116.52 276.66 -110.4 276.64 -104.29 276.63 C-98.05 276.61 -91.81 276.56 -85.57 276.52 C-73.33 276.45 -61.09 276.4 -48.84 276.36 C-48.82 247.44 -48.8 218.51 -48.79 189.58 C-48.79 186.91 -48.79 184.24 -48.79 181.57 C-48.79 180.91 -48.79 180.24 -48.79 179.56 C-48.78 168.8 -48.78 158.04 -48.77 147.28 C-48.76 136.25 -48.75 125.22 -48.75 114.18 C-48.75 107.98 -48.75 101.78 -48.74 95.58 C-48.73 89.75 -48.73 83.93 -48.73 78.1 C-48.73 75.95 -48.73 73.81 -48.72 71.66 C-48.72 68.74 -48.72 65.83 -48.72 62.91 C-48.72 62.05 -48.72 61.19 -48.71 60.3 C-48.36 56.53 -48.36 56.53 -49.84 53.36 C-52.54 53.26 -55.2 53.23 -57.9 53.23 C-58.74 53.23 -59.58 53.23 -60.45 53.23 C-63.26 53.22 -66.06 53.23 -68.87 53.23 C-70.81 53.23 -72.75 53.23 -74.69 53.23 C-78.77 53.23 -82.85 53.23 -86.92 53.23 C-92.16 53.24 -97.39 53.24 -102.62 53.23 C-106.63 53.23 -110.65 53.23 -114.66 53.23 C-116.59 53.23 -118.52 53.23 -120.45 53.23 C-123.14 53.22 -125.84 53.23 -128.53 53.23 C-129.33 53.23 -130.14 53.23 -130.96 53.23 C-134.19 53.24 -136.76 53.34 -139.84 54.36 Z M-143.84 292.36 C-143.84 313.48 -143.84 334.6 -143.84 356.36 C-141.53 356.36 -139.22 356.36 -136.84 356.36 C-135.06 354.58 -135.72 351.98 -135.71 349.57 C-135.71 348.34 -135.71 347.1 -135.7 345.82 C-135.71 344.46 -135.71 343.1 -135.71 341.74 C-135.71 340.35 -135.71 338.97 -135.71 337.58 C-135.71 334.67 -135.71 331.76 -135.71 328.85 C-135.72 325.12 -135.72 321.38 -135.71 317.64 C-135.71 314.78 -135.71 311.92 -135.71 309.05 C-135.71 307.68 -135.71 306.3 -135.71 304.92 C-135.7 303 -135.71 301.08 -135.71 299.15 C-135.72 298.06 -135.72 296.96 -135.72 295.83 C-135.56 293.42 -135.56 293.42 -136.84 292.36 C-139.15 292.36 -141.46 292.36 -143.84 292.36 Z M-120.84 293.36 C-120.94 295.29 -120.97 297.22 -120.97 299.15 C-120.98 300.39 -120.98 301.63 -120.98 302.9 C-120.98 304.27 -120.98 305.63 -120.98 306.99 C-120.98 308.37 -120.98 309.76 -120.98 311.15 C-120.98 314.06 -120.98 316.96 -120.97 319.87 C-120.97 323.61 -120.97 327.35 -120.98 331.08 C-120.98 333.95 -120.98 336.81 -120.98 339.67 C-120.98 341.05 -120.98 342.43 -120.98 343.81 C-120.98 345.73 -120.98 347.65 -120.97 349.57 C-120.97 350.67 -120.97 351.77 -120.97 352.9 C-121.12 355.31 -121.12 355.31 -119.84 356.36 C-117.41 356.46 -115 356.49 -112.57 356.48 C-111.81 356.48 -111.05 356.48 -110.26 356.48 C-107.74 356.48 -105.21 356.47 -102.68 356.46 C-100.94 356.46 -99.19 356.46 -97.44 356.46 C-92.83 356.45 -88.23 356.44 -83.62 356.43 C-78.09 356.42 -72.57 356.42 -67.04 356.41 C-58.64 356.4 -50.24 356.38 -41.84 356.36 C-41.84 335.24 -41.84 314.12 -41.84 292.36 C-55.68 292.33 -55.68 292.33 -69.52 292.31 C-75.16 292.31 -80.8 292.3 -86.44 292.29 C-90.99 292.28 -95.53 292.27 -100.08 292.27 C-101.82 292.27 -103.55 292.26 -105.29 292.26 C-107.72 292.25 -110.14 292.25 -112.57 292.25 C-113.66 292.24 -113.66 292.24 -114.77 292.24 C-118.09 291.96 -118.09 291.96 -120.84 293.36 Z M-25.84 292.36 C-27.13 293.42 -27.13 293.42 -26.96 295.88 C-26.96 296.99 -26.96 298.11 -26.96 299.26 C-26.96 300.52 -26.96 301.78 -26.96 303.08 C-26.95 304.47 -26.95 305.86 -26.94 307.24 C-26.94 308.65 -26.94 310.06 -26.94 311.48 C-26.93 315.2 -26.92 318.92 -26.91 322.64 C-26.9 326.43 -26.9 330.22 -26.89 334.02 C-26.88 341.47 -26.86 348.91 -26.84 356.36 C-21.56 356.36 -16.28 356.36 -10.84 356.36 C-10.84 335.24 -10.84 314.12 -10.84 292.36 C-15.79 292.36 -20.74 292.36 -25.84 292.36 Z M-313.84 310.36 C-313.87 314.33 -313.89 318.3 -313.9 322.27 C-313.9 323.62 -313.91 324.97 -313.92 326.32 C-313.93 328.26 -313.94 330.2 -313.94 332.14 C-313.95 333.31 -313.95 334.48 -313.96 335.68 C-314.15 338.28 -314.15 338.28 -312.84 339.36 C-310.15 339.44 -307.48 339.46 -304.78 339.43 C-300.85 339.39 -300.85 339.39 -296.84 339.36 C-296.84 329.79 -296.84 320.22 -296.84 310.36 C-302.45 310.36 -308.06 310.36 -313.84 310.36 Z M-282.84 310.36 C-282.84 319.6 -282.84 328.84 -282.84 338.36 C-280.38 339.59 -278.77 339.49 -276.02 339.49 C-274.49 339.49 -274.49 339.49 -272.93 339.5 C-271.24 339.5 -271.24 339.5 -269.53 339.49 C-268.35 339.49 -267.17 339.5 -265.95 339.5 C-262.72 339.5 -259.48 339.5 -256.24 339.5 C-252.86 339.5 -249.47 339.5 -246.09 339.5 C-240.41 339.5 -234.73 339.5 -229.05 339.49 C-222.48 339.49 -215.9 339.49 -209.32 339.5 C-203.69 339.5 -198.05 339.5 -192.41 339.5 C-189.04 339.5 -185.67 339.5 -182.3 339.5 C-178.54 339.5 -174.79 339.5 -171.03 339.49 C-169.35 339.5 -169.35 339.5 -167.62 339.5 C-166.1 339.49 -166.1 339.49 -164.54 339.49 C-163.66 339.49 -162.77 339.49 -161.85 339.49 C-159.85 339.59 -159.85 339.59 -158.84 338.36 C-158.84 329.12 -158.84 319.88 -158.84 310.36 C-199.76 310.36 -240.68 310.36 -282.84 310.36 Z M-213.1 363.27 C-213.96 364.8 -213.96 364.8 -214.84 366.36 C-215.8 367.68 -216.77 368.99 -217.76 370.28 C-218.51 371.36 -219.26 372.44 -220.03 373.55 C-222.74 377.41 -225.47 381.23 -228.41 384.93 C-231.3 388.61 -234.07 392.36 -236.78 396.18 C-237.18 396.73 -237.59 397.28 -238 397.85 C-240.27 401.08 -240.84 402.27 -240.84 406.36 C-240.3 406.36 -239.75 406.36 -239.18 406.37 C-206.68 406.4 -174.18 406.46 -141.68 406.54 C-137.78 406.55 -133.88 406.56 -129.98 406.57 C-129.2 406.57 -128.43 406.57 -127.63 406.58 C-115.05 406.61 -102.46 406.62 -89.88 406.64 C-76.98 406.65 -64.07 406.68 -51.17 406.72 C-43.2 406.74 -35.24 406.76 -27.27 406.75 C-21.17 406.75 -15.06 406.78 -8.96 406.8 C-6.45 406.81 -3.95 406.81 -1.44 406.81 C1.98 406.8 5.39 406.82 8.8 406.84 C9.8 406.84 10.8 406.83 11.83 406.82 C18.53 406.9 18.53 406.9 21.77 409.27 C23.23 411.48 23.62 412.76 23.84 415.36 C24.41 418.2 24.74 419.08 27.17 420.73 C29.48 421.75 31.76 422.61 34.16 423.36 C35.15 423.69 36.14 424.02 37.16 424.36 C37.16 425.02 37.16 425.68 37.16 426.36 C37.9 427.09 38.64 427.81 39.41 428.55 C45.43 434.71 47.12 440.75 47.34 449.24 C47.2 458.16 44.8 464.35 39.16 471.36 C38.5 471.69 37.84 472.02 37.16 472.36 C37.16 473.02 37.16 473.68 37.16 474.36 C35.2 475.42 33.39 476.31 31.21 476.81 C28.87 477.42 27.16 477.99 25.16 479.36 C23.98 481.93 23.36 484.32 22.82 487.09 C22.16 489.36 22.16 489.36 19.16 491.36 C17.12 491.62 17.12 491.62 14.73 491.62 C13.81 491.63 12.9 491.64 11.96 491.65 C10.96 491.65 9.96 491.64 8.92 491.64 C7.33 491.65 7.33 491.65 5.7 491.66 C2.12 491.68 -1.47 491.68 -5.05 491.68 C-7.61 491.69 -10.18 491.7 -12.74 491.71 C-18.26 491.73 -23.79 491.75 -29.31 491.76 C-37.3 491.77 -45.29 491.8 -53.28 491.83 C-66.24 491.87 -79.19 491.91 -92.15 491.94 C-104.74 491.97 -117.33 492.01 -129.92 492.05 C-131.09 492.05 -131.09 492.05 -132.28 492.05 C-136.17 492.07 -140.06 492.08 -143.95 492.09 C-176.25 492.19 -208.55 492.28 -240.84 492.36 C-240.18 497.06 -239.2 499.87 -236.41 503.74 C-235.79 504.61 -235.17 505.49 -234.54 506.39 C-233.98 507.04 -233.42 507.69 -232.84 508.36 C-232.18 508.36 -231.52 508.36 -230.84 508.36 C-230.57 508.94 -230.29 509.52 -230 510.12 C-228.09 513.82 -225.69 517.18 -223.34 520.61 C-222.84 521.36 -222.35 522.1 -221.83 522.87 C-221.35 523.57 -220.87 524.28 -220.38 525 C-219.94 525.65 -219.5 526.29 -219.05 526.96 C-218.65 527.42 -218.25 527.89 -217.84 528.36 C-217.18 528.36 -216.52 528.36 -215.84 528.36 C-215.6 528.91 -215.35 529.45 -215.1 530.01 C-213.56 532.89 -211.72 535.42 -209.78 538.05 C-208.71 539.51 -208.71 539.51 -207.62 541 C-206.05 543.2 -206.05 543.2 -204.84 544.36 C-203.44 544.46 -202.03 544.49 -200.62 544.49 C-199.72 544.5 -198.82 544.5 -197.9 544.5 C-196.92 544.5 -195.94 544.5 -194.94 544.5 C-193.44 544.5 -193.44 544.5 -191.92 544.5 C-189.81 544.5 -187.71 544.5 -185.6 544.49 C-182.36 544.49 -179.12 544.49 -175.88 544.5 C-173.84 544.5 -171.79 544.5 -169.75 544.5 C-168.77 544.5 -167.8 544.5 -166.79 544.5 C-165.45 544.5 -165.45 544.5 -164.07 544.49 C-163.28 544.49 -162.48 544.49 -161.67 544.49 C-159.82 544.56 -159.82 544.56 -158.84 543.36 C-158.64 540.06 -158.52 536.77 -158.42 533.46 C-157.84 530.36 -157.84 530.36 -156.09 528.69 C-153.59 527.21 -152.26 526.98 -149.38 526.96 C-148.49 526.95 -147.6 526.94 -146.68 526.93 C-145.72 526.93 -144.75 526.93 -143.75 526.93 C-142.73 526.92 -141.7 526.91 -140.65 526.9 C-137.26 526.87 -133.87 526.86 -130.48 526.85 C-128.14 526.83 -125.79 526.82 -123.44 526.8 C-117.26 526.75 -111.08 526.72 -104.9 526.69 C-98.59 526.66 -92.28 526.62 -85.97 526.57 C-73.6 526.49 -61.22 526.42 -48.84 526.36 C-48.77 524.86 -48.77 524.86 -48.7 523.33 C-48.62 521.99 -48.54 520.64 -48.47 519.3 C-48.4 517.99 -48.33 516.68 -48.26 515.33 C-47.84 511.34 -47.16 508.13 -45.84 504.36 C-43.97 503.05 -43.97 503.05 -41.84 502.36 C-41.27 502.01 -40.69 501.66 -40.09 501.3 C-32.29 498.05 -22.26 499.02 -13.96 498.76 C-12.89 498.72 -11.82 498.68 -10.71 498.64 C-9.76 498.61 -8.8 498.58 -7.81 498.55 C-4.75 498.4 -4.75 498.4 -1.39 497.86 C2.03 497.38 5.32 497.19 8.78 497.12 C10.03 497.09 11.28 497.05 12.57 497.02 C13.23 497.01 13.88 496.99 14.56 496.97 C25.91 496.7 37.18 496.15 48.49 495.09 C55.56 494.45 62.62 494.1 69.72 493.86 C78.65 493.56 87.34 492.82 96.16 491.36 C92.76 488.48 89.49 486.39 85.47 484.49 C71.46 477.66 71.46 477.66 67.16 473.36 C66.9 471.32 66.9 471.32 66.88 468.78 C66.87 467.83 66.86 466.88 66.85 465.9 C66.85 464.35 66.85 464.35 66.86 462.77 C66.85 461.72 66.85 460.66 66.84 459.58 C66.84 457.34 66.84 455.1 66.84 452.87 C66.84 449.44 66.82 446.02 66.79 442.59 C66.79 440.42 66.79 438.25 66.79 436.09 C66.78 435.06 66.77 434.03 66.77 432.97 C66.77 431.54 66.77 431.54 66.78 430.08 C66.78 428.82 66.78 428.82 66.78 427.53 C67.24 424.85 68.05 424.03 70.16 422.36 C71.98 421.37 73.84 420.44 75.72 419.55 C82.92 416.04 89.76 412.21 96.16 407.36 C84.36 405.52 72.64 404.8 60.72 404.3 C58.05 404.18 55.38 404.07 52.71 403.94 C51.06 403.87 49.42 403.8 47.78 403.73 C44.17 403.57 40.63 403.33 37.05 402.85 C33.29 402.38 29.63 402.18 25.84 402.08 C25.18 402.06 24.52 402.05 23.84 402.03 C21.06 401.95 18.27 401.88 15.49 401.81 C13.44 401.76 11.39 401.7 9.34 401.64 C8.13 401.61 6.92 401.58 5.67 401.55 C2.11 401.36 -1.32 400.88 -4.84 400.36 C-6.8 400.24 -8.76 400.14 -10.71 400.08 C-12.32 400.03 -12.32 400.03 -13.96 399.97 C-15.05 399.93 -16.15 399.9 -17.28 399.86 C-37.25 399.23 -37.25 399.23 -43.84 394.36 C-44.5 394.36 -45.16 394.36 -45.84 394.36 C-47.46 389.31 -48.19 384.76 -48.47 379.43 C-48.51 378.74 -48.55 378.06 -48.59 377.35 C-48.68 375.69 -48.76 374.03 -48.84 372.36 C-50.15 372.36 -51.46 372.35 -52.8 372.35 C-65.1 372.29 -77.41 372.22 -89.71 372.13 C-96.03 372.08 -102.36 372.04 -108.68 372.02 C-114.78 371.99 -120.88 371.95 -126.99 371.9 C-129.32 371.88 -131.65 371.87 -133.98 371.87 C-137.23 371.86 -140.49 371.83 -143.75 371.8 C-145.2 371.8 -145.2 371.8 -146.68 371.8 C-147.57 371.79 -148.46 371.77 -149.38 371.76 C-150.53 371.76 -150.53 371.76 -151.71 371.75 C-154.45 371.25 -155.84 370.27 -157.84 368.36 C-158.42 365.26 -158.42 365.26 -158.53 361.74 C-158.32 357.73 -158.32 357.73 -159.84 354.36 C-161.2 354.21 -162.57 354.12 -163.93 354.06 C-164.8 354.02 -165.67 353.98 -166.56 353.94 C-170.57 353.8 -174.58 353.71 -178.6 353.63 C-180.7 353.58 -182.81 353.5 -184.92 353.4 C-201.63 352.51 -201.63 352.51 -213.1 363.27 Z M115.16 407.36 C119.16 408.36 119.16 408.36 119.16 408.36 Z M143.16 410.36 C143.16 410.69 143.16 411.02 143.16 411.36 C150.75 411.36 158.34 411.36 166.16 411.36 C166.16 411.03 166.16 410.7 166.16 410.36 C158.57 410.36 150.98 410.36 143.16 410.36 Z M170.16 412.36 C170.16 412.69 170.16 413.02 170.16 413.36 C171.25 413.45 171.25 413.45 172.37 413.53 C175.7 413.78 179.02 414.04 182.34 414.3 C184.07 414.43 184.07 414.43 185.83 414.56 C187.5 414.69 187.5 414.69 189.2 414.83 C190.73 414.95 190.73 414.95 192.29 415.07 C194.97 415.34 197.52 415.84 200.16 416.36 C201.72 416.49 203.28 416.58 204.84 416.64 C206.14 416.7 206.14 416.7 207.46 416.76 C208.35 416.79 209.24 416.83 210.16 416.86 C211.93 416.93 213.7 417.01 215.47 417.08 C216.25 417.11 217.03 417.14 217.83 417.17 C220.33 417.38 222.7 417.87 225.16 418.36 C227.01 418.55 228.87 418.7 230.73 418.83 C231.79 418.91 232.85 418.98 233.95 419.06 C236.15 419.22 238.35 419.37 240.55 419.53 C255.88 420.66 255.88 420.66 261.16 422.36 C263.29 425.56 263.41 426.39 263.42 430.06 C263.42 431.01 263.43 431.96 263.43 432.94 C263.43 433.97 263.43 434.99 263.42 436.05 C263.42 437.1 263.43 438.16 263.43 439.24 C263.43 441.47 263.43 443.7 263.42 445.93 C263.41 449.35 263.42 452.77 263.43 456.18 C263.43 458.35 263.43 460.51 263.42 462.68 C263.43 463.7 263.43 464.73 263.43 465.78 C263.42 467.21 263.42 467.21 263.42 468.66 C263.41 469.5 263.41 470.34 263.41 471.2 C263.16 473.36 263.16 473.36 261.16 476.36 C259.24 476.96 259.24 476.96 256.89 477.28 C256.03 477.4 255.16 477.52 254.27 477.64 C252.89 477.81 252.89 477.81 251.47 477.99 C250.53 478.11 249.58 478.24 248.61 478.37 C241.81 479.24 235.04 479.83 228.19 480.15 C225.26 480.28 225.26 480.28 222.84 480.86 C218.84 481.61 214.84 481.65 210.78 481.8 C203.35 482.12 196.15 482.8 188.79 483.89 C182.6 484.7 176.39 485.03 170.16 485.36 C170.16 485.69 170.16 486.02 170.16 486.36 C195.65 486.73 195.65 486.73 221.08 485.15 C229.08 484.32 237.06 483.96 245.09 483.71 C249.74 483.55 254.25 483.23 258.86 482.6 C263.78 482.1 268.75 482.09 273.69 481.97 C284.76 481.71 295.74 481.18 306.76 480.1 C315.1 479.3 323.45 478.96 331.82 478.71 C332.81 478.67 333.8 478.64 334.81 478.61 C335.68 478.59 336.54 478.56 337.43 478.54 C340.28 478.39 340.28 478.39 343.57 477.86 C347.02 477.38 350.33 477.19 353.81 477.12 C355.7 477.07 355.7 477.07 357.62 477.02 C358.28 477.01 358.94 476.99 359.62 476.97 C370.71 476.71 381.71 476.18 392.76 475.1 C401.1 474.3 409.45 473.96 417.82 473.71 C419.3 473.66 419.3 473.66 420.81 473.61 C421.68 473.59 422.54 473.56 423.43 473.54 C426.28 473.39 426.28 473.39 429.57 472.86 C433.02 472.38 436.33 472.19 439.81 472.12 C441.07 472.09 442.33 472.05 443.62 472.02 C444.28 472.01 444.94 471.99 445.62 471.97 C456.72 471.71 467.73 471.17 478.79 470.09 C485.78 469.43 492.76 469.1 499.78 468.86 C507.88 468.58 515.95 468.18 524.03 467.49 C524.91 467.42 525.79 467.36 526.7 467.29 C527.51 467.21 528.32 467.14 529.15 467.06 C530.21 466.97 530.21 466.97 531.28 466.87 C533.65 466.23 534.65 465.27 536.16 463.36 C536.16 462.7 536.16 462.04 536.16 461.36 C536.82 461.36 537.48 461.36 538.16 461.36 C540.12 457.25 540.43 453.9 540.41 449.36 C540.41 448.17 540.42 446.97 540.42 445.74 C540.17 442.51 539.54 440.27 538.16 437.36 C537.5 437.36 536.84 437.36 536.16 437.36 C535.85 436.72 535.54 436.08 535.22 435.43 C534.32 433.43 534.32 433.43 533.16 432.36 C530.49 431.98 527.84 431.68 525.16 431.43 C524.28 431.34 523.39 431.26 522.49 431.17 C510.11 430.07 497.7 429.6 485.29 429.06 C484.41 429.02 483.53 428.98 482.63 428.94 C480.97 428.87 479.32 428.8 477.66 428.73 C473.1 428.53 468.68 428.01 464.16 427.36 C461.75 427.23 459.34 427.14 456.94 427.08 C456.28 427.06 455.61 427.05 454.93 427.03 C452.84 426.97 450.75 426.92 448.66 426.86 C445.9 426.79 443.14 426.72 440.38 426.64 C439.16 426.61 437.94 426.58 436.69 426.55 C433.16 426.36 433.16 426.36 429.79 425.88 C425.44 425.26 421.14 425.05 416.75 424.86 C415.87 424.82 414.98 424.78 414.07 424.74 C411.27 424.61 408.46 424.49 405.66 424.36 C401.96 424.2 398.26 424.03 394.56 423.86 C393.3 423.81 393.3 423.81 392.02 423.76 C387.34 423.54 382.8 423.04 378.16 422.36 C375.76 422.23 373.37 422.14 370.97 422.08 C370.31 422.06 369.65 422.05 368.98 422.03 C366.89 421.97 364.8 421.92 362.72 421.86 C359.97 421.79 357.22 421.72 354.47 421.64 C352.65 421.6 352.65 421.6 350.8 421.55 C347.58 421.39 344.45 421.03 341.25 420.61 C337.47 420.17 333.67 420.03 329.87 419.86 C329.01 419.82 328.15 419.78 327.27 419.74 C323.62 419.57 319.98 419.4 316.33 419.24 C313.66 419.12 310.98 418.99 308.31 418.86 C307.49 418.83 306.68 418.79 305.84 418.76 C301.22 418.54 296.74 418.02 292.16 417.36 C289.76 417.23 287.37 417.14 284.97 417.08 C284.31 417.06 283.65 417.05 282.98 417.03 C280.89 416.97 278.8 416.92 276.72 416.86 C273.97 416.79 271.22 416.72 268.47 416.64 C266.65 416.6 266.65 416.6 264.8 416.55 C261.58 416.39 258.45 416.03 255.25 415.61 C251.47 415.17 247.67 415.03 243.87 414.86 C243.01 414.82 242.15 414.78 241.27 414.74 C237.62 414.57 233.98 414.4 230.33 414.24 C227.66 414.12 224.98 413.99 222.31 413.86 C221.49 413.83 220.68 413.79 219.84 413.76 C216.39 413.59 213.05 413.35 209.62 412.84 C205.58 412.28 201.67 412.24 197.6 412.27 C196.81 412.27 196.02 412.27 195.21 412.27 C192.71 412.28 190.21 412.29 187.72 412.3 C186.02 412.31 184.31 412.31 182.61 412.31 C178.46 412.33 174.31 412.34 170.16 412.36 Z M-240.84 422.36 C-240.84 440.18 -240.84 458 -240.84 476.36 C-161.31 476.36 -81.78 476.36 0.16 476.36 C-1.49 474.71 -3.14 473.06 -4.84 471.36 C-5.94 470.04 -7.01 468.68 -8.03 467.3 C-8.52 466.65 -9.01 466 -9.51 465.33 C-14.64 457.76 -13.92 448.19 -12.84 439.36 C-10.49 432.22 -5.65 427.89 0.16 423.36 C0.16 423.03 0.16 422.7 0.16 422.36 C-79.37 422.36 -158.9 422.36 -240.84 422.36 Z M81.16 433.36 C80.77 437.83 80.67 442.3 80.59 446.78 C80.55 448.29 80.5 449.79 80.42 451.29 C79.71 460.01 79.71 460.01 83.07 467.62 C85.37 469.15 87.62 470.25 90.16 471.36 C91.48 472.3 92.8 473.26 94.09 474.24 C103.81 479.51 118.06 476.45 128.41 474.87 C133.82 474.14 139.24 473.88 144.7 473.61 C147.99 473.45 147.99 473.45 150.53 472.86 C154.51 472.11 158.49 472.08 162.53 471.93 C169.92 471.61 177.09 470.92 184.41 469.84 C189.41 469.21 194.4 468.93 199.44 468.71 C202.21 468.57 204.89 468.42 207.61 467.86 C211.29 467.14 214.98 467.12 218.72 466.99 C229.02 466.55 238.98 465.02 249.16 463.36 C249.16 454.12 249.16 444.88 249.16 435.36 C238.17 433.57 227.46 432.05 216.34 431.65 C210.57 431.45 210.57 431.45 207.8 430.88 C204.84 430.3 201.95 430.07 198.94 429.86 C197.76 429.78 196.58 429.7 195.36 429.61 C194.14 429.53 192.92 429.45 191.66 429.36 C189.23 429.2 186.8 429.03 184.38 428.86 C183.3 428.79 182.23 428.72 181.12 428.64 C178.4 428.39 175.83 427.9 173.16 427.36 C171.6 427.24 170.03 427.14 168.47 427.08 C167.61 427.04 166.74 427.01 165.85 426.97 C164.96 426.93 164.07 426.9 163.16 426.86 C161.39 426.79 159.61 426.72 157.84 426.64 C157.06 426.61 156.28 426.58 155.48 426.55 C153.16 426.36 153.16 426.36 150.74 425.88 C147.87 425.31 145.07 425.07 142.16 424.86 C141.02 424.78 139.89 424.7 138.72 424.61 C137.54 424.53 136.37 424.45 135.16 424.36 C132.82 424.2 130.49 424.03 128.16 423.86 C127.12 423.79 126.09 423.72 125.03 423.64 C122.34 423.38 119.8 422.92 117.16 422.36 C103.44 420.75 91.34 423.18 81.16 433.36 Z M547.16 425.36 C548.72 428.02 550.2 430.41 552.22 432.75 C555.46 437.62 554.85 443.48 554.84 449.11 C554.88 450.24 554.92 451.37 554.97 452.54 C555 461.19 552.61 465.78 547.16 472.36 C547.16 472.69 547.16 473.02 547.16 473.36 C565.31 472.21 565.31 472.21 583.33 469.8 C587.66 469.13 592.01 468.87 596.38 468.61 C599.03 468.45 599.03 468.45 601.03 467.86 C604.36 467.08 607.75 467.07 611.16 466.93 C617.28 466.62 623.16 465.96 629.19 464.83 C633.62 464.13 638.06 463.92 642.54 463.71 C647.12 463.27 651.64 462.27 656.16 461.36 C656.16 453.44 656.16 445.52 656.16 437.36 C648.31 435.73 648.31 435.73 640.51 434.77 C639.57 434.69 638.62 434.61 637.65 434.53 C636.7 434.45 635.76 434.38 634.78 434.3 C632.86 434.15 630.93 433.99 629.01 433.83 C627.75 433.73 627.75 433.73 626.47 433.63 C624.28 433.38 622.29 432.9 620.16 432.36 C617.32 432.16 614.5 431.99 611.66 431.86 C603.69 431.5 603.69 431.5 601.22 430.88 C598.84 430.28 596.54 430.07 594.09 429.86 C593.13 429.78 592.17 429.7 591.18 429.61 C590.18 429.53 589.18 429.45 588.16 429.36 C586.18 429.2 584.2 429.03 582.22 428.86 C581.34 428.79 580.47 428.72 579.57 428.64 C577.35 428.39 575.32 427.91 573.16 427.36 C570.61 427.16 568.08 426.99 565.53 426.86 C559.39 426.52 553.27 426.05 547.16 425.36 Z M2.16 440.36 C-0.11 444.53 -0.42 448.71 0.16 453.36 C2.26 459.33 6.1 462.76 11.66 465.68 C16.76 467.08 20.08 466.64 24.78 464.3 C29.08 461.7 31.77 459.27 33.16 454.36 C33.88 449.14 33.8 444.87 31.72 439.99 C27.36 435.52 22.76 432.82 16.59 431.74 C10.77 432.8 6.12 436.01 2.16 440.36 Z M143.16 487.36 C143.16 487.69 143.16 488.02 143.16 488.36 C150.75 488.36 158.34 488.36 166.16 488.36 C166.16 488.03 166.16 487.7 166.16 487.36 C158.57 487.36 150.98 487.36 143.16 487.36 Z M115.16 490.36 C119.16 491.36 119.16 491.36 119.16 491.36 Z M-143.84 542.36 C-143.84 563.48 -143.84 584.6 -143.84 606.36 C-141.53 606.36 -139.22 606.36 -136.84 606.36 C-135.06 604.58 -135.72 601.98 -135.71 599.57 C-135.71 598.34 -135.71 597.1 -135.7 595.82 C-135.71 594.46 -135.71 593.1 -135.71 591.74 C-135.71 590.35 -135.71 588.97 -135.71 587.58 C-135.71 584.67 -135.71 581.76 -135.71 578.85 C-135.72 575.12 -135.72 571.38 -135.71 567.64 C-135.71 564.78 -135.71 561.92 -135.71 559.05 C-135.71 557.68 -135.71 556.3 -135.71 554.92 C-135.7 553 -135.71 551.08 -135.71 549.15 C-135.72 548.06 -135.72 546.96 -135.72 545.83 C-135.56 543.42 -135.56 543.42 -136.84 542.36 C-139.15 542.36 -141.46 542.36 -143.84 542.36 Z M-120.84 543.36 C-120.94 545.29 -120.97 547.22 -120.97 549.15 C-120.98 550.39 -120.98 551.63 -120.98 552.9 C-120.98 554.27 -120.98 555.63 -120.98 556.99 C-120.98 558.37 -120.98 559.76 -120.98 561.15 C-120.98 564.06 -120.98 566.96 -120.97 569.87 C-120.97 573.61 -120.97 577.35 -120.98 581.08 C-120.98 583.95 -120.98 586.81 -120.98 589.67 C-120.98 591.05 -120.98 592.43 -120.98 593.81 C-120.98 595.73 -120.98 597.65 -120.97 599.57 C-120.97 600.67 -120.97 601.77 -120.97 602.9 C-121.12 605.31 -121.12 605.31 -119.84 606.36 C-117.41 606.46 -115 606.49 -112.57 606.48 C-111.81 606.48 -111.05 606.48 -110.26 606.48 C-107.74 606.48 -105.21 606.47 -102.68 606.46 C-100.94 606.46 -99.19 606.46 -97.44 606.46 C-92.83 606.45 -88.23 606.44 -83.62 606.43 C-78.09 606.42 -72.57 606.42 -67.04 606.41 C-58.64 606.4 -50.24 606.38 -41.84 606.36 C-41.84 585.24 -41.84 564.12 -41.84 542.36 C-55.68 542.33 -55.68 542.33 -69.52 542.31 C-75.16 542.31 -80.8 542.3 -86.44 542.29 C-90.99 542.28 -95.53 542.27 -100.08 542.27 C-101.82 542.27 -103.55 542.26 -105.29 542.26 C-107.72 542.25 -110.14 542.25 -112.57 542.25 C-113.66 542.24 -113.66 542.24 -114.77 542.24 C-118.09 541.96 -118.09 541.96 -120.84 543.36 Z M-26.84 542.36 C-26.87 550.56 -26.88 558.76 -26.9 566.95 C-26.9 570.76 -26.91 574.57 -26.92 578.37 C-26.93 582.04 -26.94 585.71 -26.94 589.38 C-26.94 590.78 -26.94 592.19 -26.95 593.59 C-26.96 595.55 -26.96 597.51 -26.96 599.47 C-26.96 600.58 -26.96 601.7 -26.96 602.85 C-27.13 605.3 -27.13 605.3 -25.84 606.36 C-20.89 606.36 -15.94 606.36 -10.84 606.36 C-10.84 585.24 -10.84 564.12 -10.84 542.36 C-16.12 542.36 -21.4 542.36 -26.84 542.36 Z M-313.84 560.36 C-313.93 562.44 -313.95 564.51 -313.94 566.59 C-313.94 567.85 -313.93 569.11 -313.93 570.4 C-313.92 571.74 -313.91 573.09 -313.91 574.43 C-313.9 575.77 -313.9 577.11 -313.89 578.46 C-313.88 581.76 -313.86 585.06 -313.84 588.36 C-308.23 588.36 -302.62 588.36 -296.84 588.36 C-296.84 578.79 -296.84 569.22 -296.84 559.36 C-299.46 559.34 -302.08 559.32 -304.78 559.3 C-305.61 559.29 -306.43 559.28 -307.28 559.27 C-310.86 558.91 -310.86 558.91 -313.84 560.36 Z M-282.84 560.36 C-282.84 569.6 -282.84 578.84 -282.84 588.36 C-241.92 588.36 -201 588.36 -158.84 588.36 C-158.84 579.12 -158.84 569.88 -158.84 560.36 C-160.47 558.73 -162.29 559.24 -164.54 559.24 C-165.56 559.23 -166.58 559.23 -167.62 559.23 C-169.31 559.23 -169.31 559.23 -171.03 559.23 C-172.21 559.23 -173.39 559.23 -174.6 559.23 C-177.84 559.22 -181.08 559.23 -184.31 559.23 C-187.7 559.23 -191.08 559.23 -194.46 559.23 C-200.14 559.23 -205.82 559.23 -211.51 559.23 C-218.08 559.24 -224.66 559.24 -231.23 559.23 C-236.87 559.23 -242.51 559.23 -248.14 559.23 C-251.51 559.23 -254.88 559.23 -258.25 559.23 C-262.01 559.22 -265.77 559.23 -269.53 559.23 C-270.65 559.23 -271.77 559.23 -272.93 559.23 C-273.95 559.23 -274.97 559.23 -276.02 559.24 C-277.35 559.24 -277.35 559.24 -278.71 559.24 C-280.9 559.23 -280.9 559.23 -282.84 560.36 Z M-187.84 605.36 C-187.84 606.02 -187.84 606.68 -187.84 607.36 C-188.5 607.36 -189.16 607.36 -189.84 607.36 C-191.63 609.27 -191.63 609.27 -193.41 611.68 C-194.03 612.48 -194.65 613.28 -195.29 614.1 C-197 616.36 -197 616.36 -197.84 619.36 C-198.5 619.36 -199.16 619.36 -199.84 619.36 C-201.94 628.94 -198.01 638.42 -194.81 647.41 C-193.85 650.34 -193.09 653.28 -192.36 656.26 C-191.49 659.78 -190.51 663.25 -189.53 666.74 C-189.09 668.33 -188.64 669.92 -188.2 671.51 C-187.97 672.32 -187.75 673.12 -187.52 673.95 C-186.66 677.01 -185.81 680.08 -184.96 683.14 C-184.55 684.62 -184.14 686.11 -183.72 687.59 C-182.65 691.45 -181.58 695.31 -180.52 699.18 C-180.09 700.76 -179.65 702.34 -179.22 703.93 C-179.01 704.68 -178.8 705.44 -178.59 706.22 C-177.34 710.72 -175.94 715.14 -174.39 719.55 C-173.52 722.43 -173.24 725.39 -172.84 728.36 C-172.23 730.05 -171.56 731.72 -170.84 733.36 C-169.64 736.61 -168.83 739.49 -168.34 742.93 C-167.87 746.15 -167.05 748.37 -165.84 751.36 C-163.92 757.57 -162.12 763.82 -160.78 770.18 C-160.19 772.97 -159.47 775.61 -158.53 778.3 C-156.19 785.09 -154.4 792.04 -152.5 798.97 C-151.46 802.77 -150.4 806.57 -149.34 810.36 C-148.93 811.85 -148.52 813.33 -148.11 814.82 C-147.9 815.56 -147.69 816.3 -147.48 817.06 C-146.82 819.46 -146.15 821.85 -145.49 824.25 C-145.27 825.05 -145.04 825.86 -144.81 826.69 C-144.39 828.21 -143.97 829.74 -143.54 831.26 C-143.16 832.64 -142.78 834.02 -142.39 835.39 C-142.02 836.72 -141.68 838.06 -141.36 839.4 C-140.86 841.53 -140.86 841.53 -139.84 844.36 C-136.05 845.63 -132.49 845.5 -128.53 845.49 C-127.69 845.49 -126.84 845.5 -125.96 845.5 C-123.16 845.5 -120.36 845.5 -117.55 845.5 C-115.61 845.5 -113.67 845.5 -111.72 845.5 C-107.65 845.5 -103.58 845.5 -99.5 845.49 C-94.27 845.49 -89.03 845.49 -83.8 845.5 C-79.79 845.5 -75.77 845.5 -71.76 845.5 C-69.83 845.5 -67.9 845.5 -65.97 845.5 C-63.28 845.5 -60.59 845.5 -57.9 845.49 C-57.09 845.49 -56.29 845.5 -55.46 845.5 C-51.85 845.82 -51.85 845.82 -48.84 844.36 C-48.75 841.51 -48.71 838.67 -48.72 835.82 C-48.72 834.91 -48.72 834 -48.72 833.07 C-48.72 830 -48.72 826.94 -48.73 823.87 C-48.73 821.68 -48.73 819.5 -48.73 817.31 C-48.73 811.35 -48.74 805.39 -48.74 799.43 C-48.75 793.21 -48.75 786.99 -48.75 780.78 C-48.75 770.33 -48.76 759.88 -48.77 749.44 C-48.78 738.68 -48.78 727.92 -48.79 717.16 C-48.79 716.49 -48.79 715.83 -48.79 715.15 C-48.79 711.82 -48.79 708.5 -48.79 705.17 C-48.8 677.57 -48.82 649.97 -48.84 622.36 C-50.14 622.36 -51.43 622.36 -52.76 622.35 C-64.93 622.32 -77.1 622.26 -89.26 622.18 C-95.52 622.14 -101.78 622.11 -108.03 622.09 C-114.07 622.08 -120.11 622.04 -126.14 621.99 C-128.45 621.98 -130.75 621.97 -133.05 621.97 C-136.28 621.97 -139.5 621.94 -142.73 621.91 C-143.68 621.91 -144.64 621.92 -145.62 621.92 C-149.85 621.86 -152.24 621.72 -155.93 619.52 C-158.44 616.69 -158.5 614.91 -158.59 611.18 C-158.38 607.46 -158.38 607.46 -159.84 604.36 C-161.75 604.26 -163.65 604.23 -165.56 604.23 C-166.72 604.23 -167.88 604.23 -169.08 604.23 C-170.3 604.23 -171.52 604.23 -172.78 604.24 C-174 604.23 -175.22 604.23 -176.47 604.23 C-177.64 604.23 -178.8 604.23 -180 604.23 C-181.07 604.23 -182.14 604.23 -183.25 604.23 C-185.83 604.19 -185.83 604.19 -187.84 605.36 Z M0.16 850.36 C0.16 861.25 0.16 872.14 0.16 883.36 C7.09 883.36 14.02 883.36 21.16 883.36 C21.16 872.47 21.16 861.58 21.16 850.36 C14.23 850.36 7.3 850.36 0.16 850.36 Z M-152.84 860.36 C-152.84 864.65 -152.84 868.94 -152.84 873.36 C-107.3 873.36 -61.76 873.36 -14.84 873.36 C-14.84 869.07 -14.84 864.78 -14.84 860.36 C-60.38 860.36 -105.92 860.36 -152.84 860.36 Z " fill="#000000" transform="translate(465.84375,190.63671875)"/>
<path d="M0 0 C2.13 0.41 2.13 0.41 4.69 1.91 C6.73 5.46 6.91 8.41 6.13 12.41 C4.69 14.91 4.69 14.91 2.13 16.41 C-1 17.01 -3.75 17.07 -6.87 16.41 C-9.94 13.87 -10.72 12.32 -11.37 8.41 C-10.2 1.39 -6.66 -0.43 0 0 Z " fill="#000000" transform="translate(484.87109375,631.58984375)"/>
</svg>
