<?xml version="1.0" standalone="no"?>
<!DOCTYPE svg PUBLIC "-//W3C//DTD SVG 20010904//EN"
 "http://www.w3.org/TR/2001/REC-SVG-20010904/DTD/svg10.dtd">
<svg version="1.0" xmlns="http://www.w3.org/2000/svg"
 width="512.000000pt" height="512.000000pt" viewBox="0 0 512.000000 512.000000"
 preserveAspectRatio="xMidYMid meet">

<g transform="translate(0.000000,512.000000) scale(0.100000,-0.100000)"
fill="#000000" stroke="none">
<path d="M2566 4101 c-27 -36 -48 -53 -79 -64 -339 -115 -465 -162 -479 -179
-16 -17 -18 -42 -18 -173 l0 -152 -25 5 -25 4 0 -176 c0 -167 1 -176 19 -176
11 0 21 5 23 12 2 6 15 -14 28 -46 34 -84 37 -86 141 -86 l91 0 -32 -26 c-53
-45 -73 -97 -67 -178 l5 -69 -100 -216 c-86 -188 -104 -221 -142 -253 -54 -47
-70 -83 -64 -152 5 -66 41 -119 93 -137 19 -7 35 -17 35 -22 0 -6 -9 -64 -21
-131 -19 -113 -23 -124 -65 -180 -24 -33 -44 -65 -44 -72 0 -7 26 -39 58 -72
55 -57 59 -60 130 -71 71 -11 73 -11 130 18 100 52 97 46 73 128 -21 72 -28
138 -12 129 4 -3 14 -26 21 -51 18 -65 25 -68 117 -56 77 11 79 12 134 69 56
57 56 57 63 134 4 43 5 82 1 87 -3 6 -36 19 -73 30 -56 17 -76 30 -121 75 -77
78 -77 89 10 401 67 238 71 251 102 271 18 11 119 44 225 72 l194 52 233 0
233 0 118 -41 c66 -22 124 -44 130 -47 19 -11 -177 -359 -225 -402 -61 -54
-74 -90 -67 -174 5 -54 1 -104 -18 -210 -24 -129 -28 -142 -66 -192 -22 -30
-43 -60 -45 -66 -3 -7 20 -41 50 -74 l54 -61 80 -13 79 -12 71 37 c44 23 71
44 71 54 0 9 -9 45 -20 79 l-20 64 26 156 c18 105 33 165 46 182 10 14 21 44
25 65 3 22 33 90 67 150 l61 110 16 -124 c11 -81 14 -133 8 -148 -15 -41 -10
-96 13 -138 15 -27 29 -88 44 -193 l22 -153 -23 -70 c-13 -38 -22 -75 -19 -82
2 -7 35 -29 73 -50 l69 -37 76 11 c74 11 78 13 131 68 30 31 55 62 55 69 0 8
-18 40 -41 72 -40 57 -42 64 -65 215 -16 110 -20 164 -13 181 14 39 11 69 -16
136 -18 46 -33 127 -55 304 -30 227 -31 244 -16 273 l17 31 127 0 c70 0 132 4
138 8 13 8 154 427 154 457 0 15 -21 31 -80 63 -44 24 -82 47 -84 51 -3 4 -12
93 -21 197 -9 104 -21 196 -26 205 -5 10 -142 65 -351 140 -316 114 -347 127
-389 166 l-46 43 -436 0 -435 0 -36 -49z m898 -80 l28 -29 -31 -408 c-22 -292
-35 -412 -45 -423 -7 -9 -34 -60 -59 -113 l-46 -98 -195 0 -195 0 -31 59 c-31
59 -32 59 -141 107 -68 31 -109 54 -109 64 0 8 -9 191 -20 405 l-19 390 26 38
26 37 391 0 392 0 28 -29z m395 -171 c168 -61 306 -112 308 -114 2 -1 12 -110
23 -242 11 -131 22 -256 25 -276 l5 -38 -370 0 -371 0 6 48 c5 41 55 701 55
723 0 5 3 9 8 9 4 0 144 -50 311 -110z m-1294 -197 c8 -158 16 -332 19 -385
l6 -98 -239 0 c-209 0 -240 2 -245 16 -3 9 -6 149 -6 312 l0 297 223 76 c122
42 223 75 225 74 2 -2 10 -133 17 -292z m1808 -353 c26 -13 47 -26 46 -29 0
-4 -30 -94 -67 -201 l-67 -195 -110 0 -110 0 -7 48 c-7 53 -26 88 -71 130
l-29 27 170 0 c140 0 172 3 182 15 10 12 11 43 6 126 -4 61 -4 109 1 107 4 -2
29 -14 56 -28z m-657 -254 c-20 -18 -43 -49 -51 -69 -17 -41 -20 -113 -5 -151
5 -14 6 -26 2 -26 -23 2 -257 89 -257 96 0 5 18 48 40 96 l40 88 133 0 133 0
-35 -34z m-1021 -17 c85 -39 94 -45 114 -87 12 -25 19 -48 14 -53 -4 -4 -62
-21 -128 -39 -66 -17 -127 -33 -135 -36 -14 -3 -15 6 -12 59 5 74 -17 127 -68
171 l-32 26 77 0 c68 0 87 -5 170 -41z m1199 13 c2 -4 -39 -43 -92 -86 -74
-60 -98 -74 -100 -61 -9 45 38 117 93 141 33 15 91 18 99 6z m-1474 -17 c30
-16 63 -56 74 -92 6 -20 -3 -18 -113 30 -104 45 -118 54 -104 65 23 17 108 15
143 -3z m1560 -34 c5 -11 10 -22 10 -25 0 -3 -53 -48 -117 -101 l-118 -96 -18
22 c-10 12 -16 26 -15 30 5 13 223 188 235 188 7 1 17 -8 23 -18z m-1482 -136
c5 -4 -21 -55 -27 -55 -4 0 -67 27 -141 60 -108 47 -134 63 -132 77 9 44 20
42 160 -19 75 -33 138 -61 140 -63z m1496 -31 c-26 -54 -80 -86 -140 -82 l-47
3 99 81 c91 75 99 80 102 58 2 -13 -4 -40 -14 -60z m-1687 -11 c60 -25 112
-50 117 -54 14 -12 -71 -30 -110 -23 -44 8 -99 54 -113 94 -5 17 -8 30 -6 30
3 0 53 -21 112 -47z m1400 -84 c29 -10 31 -15 42 -85 6 -41 11 -83 11 -92 0
-13 -110 -224 -125 -241 -2 -1 -20 13 -40 33 -24 24 -48 38 -75 42 -22 4 -40
9 -40 11 0 5 153 283 176 321 17 26 13 25 51 11z m-1364 -49 c27 0 38 -4 34
-12 -2 -7 -28 -98 -57 -203 -29 -104 -54 -192 -56 -194 -1 -2 -20 7 -40 20
-26 16 -53 23 -86 23 -32 0 -47 4 -44 11 2 6 27 94 55 196 28 101 53 189 56
195 2 8 19 4 51 -12 26 -13 65 -24 87 -24z m1657 -165 c12 -93 24 -184 27
-202 l5 -32 -33 10 c-37 10 -79 4 -121 -17 -22 -12 -28 -12 -28 -2 0 7 -13
104 -28 216 l-28 202 55 0 c31 1 70 7 86 14 39 17 39 19 65 -189z m-1919 -50
c-23 -84 -31 -100 -49 -103 -12 -2 -22 0 -22 5 0 14 94 215 97 206 1 -4 -10
-53 -26 -108z m1444 -137 c3 -7 -3 -60 -13 -118 l-18 -105 -28 2 c-16 1 -30 4
-33 6 -4 4 24 188 32 215 3 6 16 12 30 12 14 0 28 -6 30 -12z m-118 -40 c-3
-13 -9 -47 -13 -75 -7 -56 -18 -68 -28 -30 -9 35 -7 57 10 93 18 38 39 46 31
12z m-1418 -22 c11 -13 5 -42 -15 -64 -5 -6 -64 41 -64 52 0 5 7 18 16 27 18
19 39 14 63 -15z m1607 -21 c7 -38 -8 -86 -34 -107 -13 -11 -15 -10 -9 12 3
14 9 49 13 78 8 60 20 67 30 17z m-1389 -11 c23 -21 24 -24 8 -20 -11 2 -46
10 -78 16 -66 13 -67 30 -2 30 33 0 51 -6 72 -26z m1771 8 c12 -8 -13 -23 -96
-59 -31 -13 -33 -13 -23 5 14 26 35 42 68 52 37 11 36 11 51 2z m-1825 -67
c95 -18 97 -19 97 -46 0 -15 -3 -30 -7 -32 -5 -3 -56 5 -115 16 -105 20 -108
22 -108 47 0 30 9 43 24 37 6 -2 55 -12 109 -22z m1913 0 c4 -14 4 -29 0 -32
-8 -8 -198 -94 -201 -91 -9 12 -26 50 -23 54 9 8 194 93 205 93 7 1 15 -10 19
-24z m-2120 -27 c26 -29 37 -68 19 -68 -19 0 -75 67 -75 91 0 16 4 18 18 10 9
-5 27 -20 38 -33z m1536 -93 c45 0 58 -3 58 -15 -1 -22 -37 -210 -41 -214 -5
-5 -160 22 -167 29 -5 4 23 191 34 223 3 10 10 8 31 -5 18 -12 46 -18 85 -18z
m-1344 4 c70 -13 67 -29 -5 -29 -31 0 -49 7 -70 26 -23 21 -24 24 -8 20 11 -3
48 -10 83 -17z m1920 2 c-18 -30 -63 -51 -105 -50 l-38 1 70 33 c82 40 89 41
73 16z m-1735 -49 l37 -38 -60 -59 c-33 -32 -62 -57 -65 -54 -13 13 28 189 44
189 4 0 24 -17 44 -38z m-261 -18 c20 -10 49 -15 84 -12 30 1 54 3 54 3 0 0
-9 -51 -20 -114 -11 -62 -22 -116 -24 -119 -5 -5 -155 16 -167 24 -3 2 2 52
12 111 11 59 19 111 19 116 0 10 7 9 42 -9z m2011 -36 c15 -83 29 -199 25
-203 -7 -8 -149 -27 -162 -22 -8 3 -18 41 -25 99 -7 51 -15 102 -17 114 -5 19
-2 20 53 17 38 -3 67 1 83 11 36 20 37 20 43 -16z m-1617 -24 c13 -3 24 -9 24
-13 0 -3 -43 -49 -95 -101 -103 -102 -93 -100 -117 -30 -7 20 132 162 150 155
8 -3 25 -8 38 -11z m44 -99 c0 -47 -113 -145 -138 -120 -5 5 126 145 135 145
2 0 3 -11 3 -25z m910 -50 c47 -8 86 -15 88 -15 3 0 15 -31 26 -66 l6 -21
-130 22 c-72 12 -133 24 -136 28 -8 7 37 67 50 67 6 0 49 -7 96 -15z m-1331
-79 c40 -8 77 -18 81 -23 4 -4 11 -23 15 -42 7 -33 7 -34 -21 -28 -16 3 -77
13 -137 23 -95 15 -106 19 -95 33 44 59 43 59 157 37z m2068 -41 l23 -35 -23
-5 c-54 -11 -240 -35 -245 -30 -3 2 2 22 9 42 15 38 16 38 89 49 120 18 122
18 147 -21z m-758 -10 c46 -8 86 -17 88 -19 3 -2 -5 -9 -16 -15 -30 -16 -144
5 -167 30 -21 24 -17 24 95 4z m-1269 -91 l25 -6 -25 -13 c-44 -23 -180 11
-180 45 0 6 118 -10 180 -26z m2005 -14 c-36 -35 -175 -44 -175 -11 0 7 106
26 170 30 24 1 24 1 5 -19z"/>
<path d="M1296 3570 c-203 -43 -374 -84 -382 -92 -7 -7 -28 -53 -47 -103 l-34
-90 -92 -3 c-89 -3 -92 -4 -89 -25 3 -20 9 -22 80 -25 l77 -3 -20 -51 c-11
-28 -19 -60 -17 -72 4 -29 44 -46 109 -46 l56 0 19 -42 c18 -40 22 -43 69 -50
28 -3 79 -7 114 -7 62 -1 64 0 121 49 l58 50 209 0 c197 0 211 1 228 20 15 16
17 30 12 77 -3 32 -3 52 1 46 4 -6 27 -11 52 -10 l45 2 5 75 6 75 4 -75 c5
-67 7 -75 25 -75 18 0 20 8 23 65 1 36 -1 112 -5 170 -7 96 -10 105 -28 105
-18 0 -21 -9 -26 -90 l-5 -90 -2 80 c-3 88 -10 109 -38 103 -17 -3 -19 -13
-17 -98 l1 -95 -9 90 c-6 49 -15 95 -20 102 -13 15 -36 7 -42 -15 -3 -10 -5 7
-6 36 -1 53 -25 93 -53 91 -7 0 -179 -36 -382 -79z m334 -52 c0 -7 7 -76 15
-153 8 -77 15 -155 15 -172 l0 -33 -194 0 -194 0 -55 -50 c-46 -42 -61 -50
-93 -50 -62 0 -82 10 -93 43 -18 51 -39 67 -88 67 -48 0 -47 -1 -33 34 8 22
16 26 50 26 33 0 46 -6 68 -31 23 -25 38 -32 78 -36 159 -14 196 205 41 248
-41 12 -37 13 203 65 272 58 280 59 280 42z m-547 -105 c-34 -7 -81 -59 -89
-98 -4 -25 -11 -35 -25 -35 -23 0 -24 12 -2 72 15 43 21 48 57 57 23 5 50 9
61 9 17 -1 16 -1 -2 -5z m89 -70 c25 -22 30 -60 13 -93 -17 -33 -52 -46 -92
-34 -27 7 -27 8 12 13 32 5 41 11 43 29 3 21 0 22 -52 22 -61 0 -68 9 -40 48
28 41 78 47 116 15z m645 -80 c-2 -16 -4 -3 -4 27 0 30 2 43 4 28 2 -16 2 -40
0 -55z"/>
<path d="M2723 1760 l-131 -5 -62 -80 c-42 -55 -60 -85 -56 -100 2 -11 17 -76
33 -144 l28 -124 75 -58 c41 -33 80 -59 87 -59 17 0 353 438 347 453 -9 21
-156 127 -173 125 -9 -1 -75 -5 -148 -8z m97 -55 c0 -4 -55 -77 -121 -163 -67
-86 -123 -158 -124 -160 -4 -5 -45 167 -45 188 0 12 21 48 46 81 l45 59 100 0
c54 0 99 -2 99 -5z m116 -37 c25 -17 43 -37 40 -43 -5 -14 -274 -362 -284
-369 -4 -2 -27 13 -51 33 l-44 38 144 186 c79 103 145 187 147 187 2 0 24 -14
48 -32z"/>
<path d="M3163 1410 c-54 -56 -101 -108 -105 -114 -4 -7 -10 -53 -14 -103 -5
-67 -3 -92 6 -98 21 -13 544 -54 557 -43 6 5 14 51 18 103 l7 93 -82 121 c-54
79 -89 123 -103 125 -12 3 -59 8 -104 11 l-83 6 -97 -101z m263 35 c12 -4 128
-165 122 -170 -4 -5 -377 25 -397 31 -10 3 9 29 58 78 l73 74 67 -5 c36 -3 71
-6 77 -8z m-56 -211 c113 -9 206 -17 208 -19 1 -1 0 -28 -4 -59 l-7 -56 -36 1
c-66 1 -430 35 -436 41 -3 3 -3 31 1 62 l7 56 31 -5 c17 -2 123 -12 236 -21z"/>
<path d="M1793 1316 l-93 -115 0 -100 c0 -96 1 -101 23 -106 12 -3 141 -4 287
-3 l265 3 3 103 3 102 -93 115 -93 115 -105 0 -105 0 -92 -114z m341 -16 l67
-80 -206 0 c-113 0 -205 3 -205 6 0 3 27 39 61 80 l60 74 79 0 78 0 66 -80z
m96 -195 l0 -65 -240 0 -240 0 0 65 0 65 240 0 240 0 0 -65z"/>
<path d="M3887 1378 c-24 -29 -67 -82 -95 -118 l-52 -65 0 -90 c0 -58 4 -95
12 -103 9 -9 86 -12 285 -12 317 0 293 -9 293 117 0 89 4 81 -112 226 l-79 97
-104 0 -103 0 -45 -52z m289 -76 l62 -77 -99 -3 c-54 -1 -145 -1 -203 0 l-105
3 61 78 61 77 81 0 81 0 61 -78z m94 -197 l0 -65 -237 2 -238 3 -3 49 c-2 27
-1 55 2 62 4 11 50 14 241 14 l235 0 0 -65z"/>
</g>
</svg>
